<?xml version="1.0" encoding="UTF-8"?>
<svg width="13px" height="13px" viewBox="0 0 13 13" version="1.1" xmlns="http://www.w3.org/2000/svg" xmlns:xlink="http://www.w3.org/1999/xlink">
    <!-- Generator: Sketch 63.1 (92452) - https://sketch.com -->
    <title>编组</title>
    <desc>Created with Sketch.</desc>
    <g id="模版页面" stroke="none" stroke-width="1" fill="none" fill-rule="evenodd">
        <g id="5-客户画像-业务触点-收起" transform="translate(-929.000000, -254.000000)">
            <g id="编组-6" transform="translate(912.000000, 232.000000)">
                <g id="编组" transform="translate(17.000000, 22.000000)">
                    <polygon id="路径" points="0 0 14 0 14 14 0 14"></polygon>
                    <g>
                        <rect id="矩形" fill="#000000" fill-rule="nonzero" opacity="0" x="0" y="0" width="14" height="14"></rect>
                        <path d="M6.875,0.875 C3.56160714,0.875 0.875,3.56160714 0.875,6.875 C0.875,10.1883929 3.56160714,12.875 6.875,12.875 C10.1883929,12.875 12.875,10.1883929 12.875,6.875 C12.875,3.56160714 10.1883929,0.875 6.875,0.875 Z" id="形状结合" fill="#D4DCE9"></path>
                        <path d="M9.38847656,8.73085938 L7.43886719,7.32128906 L7.43886719,3.9375 C7.43886719,3.87734375 7.38964844,3.828125 7.32949219,3.828125 L6.671875,3.828125 C6.61171875,3.828125 6.5625,3.87734375 6.5625,3.9375 L6.5625,7.70273438 C6.5625,7.73828125 6.57890625,7.77109375 6.60761719,7.79160156 L8.86894531,9.44042969 C8.91816406,9.47597656 8.98652344,9.46503906 9.02207031,9.4171875 L9.41308594,8.88398438 C9.44863281,8.83339844 9.43769531,8.76503906 9.38847656,8.73085938 L9.38847656,8.73085938 Z" id="路径" fill="#FFFFFF"></path>
                    </g>
                </g>
            </g>
        </g>
    </g>
</svg>