<?xml version="1.0" encoding="UTF-8"?>
<svg width="14px" height="12px" viewBox="0 0 14 12" version="1.1" xmlns="http://www.w3.org/2000/svg" xmlns:xlink="http://www.w3.org/1999/xlink">
    <!-- Generator: Sketch 63.1 (92452) - https://sketch.com -->
    <title>编组</title>
    <desc>Created with Sketch.</desc>
    <g id="模版页面" stroke="none" stroke-width="1" fill="none" fill-rule="evenodd">
        <g id="4-客户画像-标签描摹-列表" transform="translate(-81.000000, -614.000000)">
            <g id="营销动作备份-5" transform="translate(64.000000, 120.000000)">
                <g id="编组" transform="translate(17.000000, 493.000000)">
                    <polygon id="路径" points="0 0 14 0 14 14 0 14"></polygon>
                    <path d="M2.84258333,1.74999999 L11.1574167,1.74999999 C11.3441186,1.74999999 11.5195526,1.83931743 11.6293333,1.99033333 L13.8594167,5.05633333 C13.9411658,5.16882417 13.9321315,5.32338278 13.8378333,5.42558333 L7.21408333,12.6011667 C7.15887971,12.6608287 7.08128347,12.6947481 7,12.6947481 C6.91871653,12.6947481 6.84112029,12.6608287 6.78591667,12.6011667 L0.162166667,5.42616667 C0.0675535067,5.32387132 0.0585117696,5.16893993 0.140583333,5.05633333 L2.37066667,1.99033333 C2.4804474,1.83931743 2.6558814,1.74999999 2.84258333,1.74999999 Z" id="路径" fill="#D4DCE9"></path>
                </g>
            </g>
        </g>
    </g>
</svg>