<?xml version="1.0" encoding="UTF-8"?>
<svg width="12px" height="12px" viewBox="0 0 12 12" version="1.1" xmlns="http://www.w3.org/2000/svg" xmlns:xlink="http://www.w3.org/1999/xlink">
    <!-- Generator: Sketch 63.1 (92452) - https://sketch.com -->
    <title>编组</title>
    <desc>Created with Sketch.</desc>
    <g id="模版页面" stroke="none" stroke-width="1" fill="none" fill-rule="evenodd">
        <g id="4-客户画像-标签描摹-列表" transform="translate(-82.000000, -526.000000)">
            <g id="营销动作备份-5" transform="translate(64.000000, 120.000000)">
                <g id="编组" transform="translate(17.000000, 405.000000)">
                    <polygon id="路径" points="0 0 14 0 14 14 0 14"></polygon>
                    <path d="M6.99933333,1 C3.68466667,1 1,3.68666666 1,7.00066667 L1,13 L6.99933333,13 C10.3126667,13 13,10.3153333 13,7.00066667 C13,3.68733333 10.3133333,1 6.99933333,1 Z M8.174,9.002 L7.82066666,9.27133333 C7.38066666,9.60599999 7.216,9.73 7.034,9.91 C7.00466507,9.93988766 6.96454518,9.95672563 6.92266666,9.95672563 C6.88078814,9.95672563 6.84066826,9.93988766 6.81133333,9.91 C6.67533333,9.774 6.54733333,9.67666667 6.29466667,9.484 C6.08466667,9.32466667 5.87666668,9.164 5.67,9.00066667 C4.962,8.44266667 3.99133333,7.67933334 3.99133333,6.586 C3.99133333,5.522 4.80333333,4.94866667 5.56733334,4.94866667 C6.08266667,4.94866667 6.56266667,5.19 6.92266667,5.62733334 C7.28333334,5.18866667 7.76466667,4.948 8.28133333,4.948 C9.04466666,4.948 9.856,5.51866667 9.856,6.57466667 C9.85533333,7.72533333 8.76133333,8.556 8.174,9.002 L8.174,9.002 Z" id="形状" fill="#D4DCE9"></path>
                </g>
            </g>
        </g>
    </g>
</svg>