<?xml version="1.0" encoding="UTF-8"?>
<svg width="12px" height="12px" viewBox="0 0 12 12" version="1.1" xmlns="http://www.w3.org/2000/svg" xmlns:xlink="http://www.w3.org/1999/xlink">
    <!-- Generator: Sketch 63.1 (92452) - https://sketch.com -->
    <title>编组</title>
    <desc>Created with Sketch.</desc>
    <g id="模版页面" stroke="none" stroke-width="1" fill="none" fill-rule="evenodd">
        <g id="4-客户画像-标签描摹-列表" transform="translate(-82.000000, -190.000000)">
            <g id="营销动作备份-5" transform="translate(64.000000, 120.000000)">
                <g id="编组" transform="translate(17.000000, 69.000000)">
                    <polygon id="路径" points="0 0 14 0 14 14 0 14"></polygon>
                    <path d="M7,12.8333333 C3.77825,12.8333333 1.16666667,10.22175 1.16666667,7 C1.16666667,3.77825 3.77825,1.16666667 7,1.16666667 C10.22175,1.16666667 12.8333333,3.77825 12.8333333,7 C12.8333333,10.22175 10.22175,12.8333333 7,12.8333333 Z M6.41666667,6.41666667 L6.41666667,9.91666667 L7.58333333,9.91666667 L7.58333333,6.41666667 L6.41666667,6.41666667 Z M6.41666667,4.08333333 L6.41666667,5.25 L7.58333333,5.25 L7.58333333,4.08333333 L6.41666667,4.08333333 Z" id="形状" fill="#D4DCE9"></path>
                </g>
            </g>
        </g>
    </g>
</svg>