<?xml version="1.0" encoding="UTF-8"?>
<svg width="12px" height="12px" viewBox="0 0 12 12" version="1.1" xmlns="http://www.w3.org/2000/svg" xmlns:xlink="http://www.w3.org/1999/xlink">
    <!-- Generator: Sketch 63.1 (92452) - https://sketch.com -->
    <title>编组</title>
    <desc>Created with Sketch.</desc>
    <g id="模版页面" stroke="none" stroke-width="1" fill="none" fill-rule="evenodd">
        <g id="4-客户画像-标签描摹-列表" transform="translate(-82.000000, -318.000000)">
            <g id="营销动作备份-5" transform="translate(64.000000, 120.000000)">
                <g id="编组" transform="translate(17.000000, 197.000000)">
                    <polygon id="路径" points="0 0 14 0 14 14 0 14"></polygon>
                    <path d="M12.2499999,11.6666667 C12.2499999,11.9888328 11.9888328,12.25 11.6666667,12.25 L2.33333333,12.25 C2.01116723,12.25 1.74999986,11.9888328 1.74999986,11.6666667 L1.74999986,5.53583333 C1.74987502,5.35569551 1.83298273,5.18560461 1.97516667,5.075 L6.64183333,1.4455 C6.8524946,1.28162691 7.1475054,1.28162691 7.35816667,1.4455 L12.0248333,5.075 C12.1670173,5.18560461 12.250125,5.35569551 12.2499999,5.53583333 L12.2499999,11.6666667 L12.2499999,11.6666667 Z M4.08333333,8.75 L4.08333333,9.91666667 L9.91666667,9.91666667 L9.91666667,8.75 L4.08333333,8.75 Z" id="形状" fill="#D4DCE9"></path>
                </g>
            </g>
        </g>
    </g>
</svg>