<?xml version="1.0" encoding="UTF-8"?>
<svg width="10px" height="10px" viewBox="0 0 10 10" version="1.1" xmlns="http://www.w3.org/2000/svg" xmlns:xlink="http://www.w3.org/1999/xlink">
    <!-- Generator: Sketch 63.1 (92452) - https://sketch.com -->
    <title>全屏</title>
    <desc>Created with Sketch.</desc>
    <defs>
        <linearGradient x1="50%" y1="0.368316004%" x2="50%" y2="99.6422026%" id="linearGradient-1">
            <stop stop-color="#918CFF" offset="0.0211148649%"></stop>
            <stop stop-color="#554EFD" offset="100%"></stop>
        </linearGradient>
    </defs>
    <g id="页面-1" stroke="none" stroke-width="1" fill="none" fill-rule="evenodd">
        <g id="9-|-创建计划未来样式备份-2" transform="translate(-71.000000, -63.000000)" fill="url(#linearGradient-1)" fill-rule="nonzero">
            <g id="保存备份4" transform="translate(50.000000, 48.000000)">
                <g id="编组13" transform="translate(14.000000, 8.000000)">
                    <g id="1通用-/-2Icon图标-/-Fill-/-开发-/-运行" transform="translate(6.000000, 6.000000)">
                        <path d="M8.88386418,1 L3.04702524,1 C1.91897035,1 1,1.91897035 1,3.04702524 L1,8.88386418 C1,10.0119191 1.91897035,10.9308894 3.04702524,10.9308894 L8.88386418,10.9308894 C10.0119191,10.9308894 10.9384014,10.0119191 10.9309348,8.88386418 L10.9309348,3.04702524 C10.9309348,1.91771835 10.0131711,1 8.88386418,1 Z M4.33909255,9.93429487 L2.45482772,9.93429487 C2.19816707,9.93429487 1.98031851,9.72395833 1.97280649,9.45227364 L1.97280649,7.56926082 C1.97280649,7.30508814 2.18314303,7.0947516 2.44731571,7.0947516 C2.58002804,7.0947516 2.69646434,7.14983974 2.78160056,7.23497596 C2.86673678,7.32011218 2.92182492,7.4453125 2.92182492,7.56926082 L2.92182492,8.30043069 L4.62705329,6.59520232 C4.81360176,6.40865385 5.11783854,6.40865385 5.30438702,6.59520232 C5.4909355,6.7817508 5.4909355,7.08598758 5.30438702,7.27253606 L3.59915865,8.97776442 L4.33032853,8.97776442 C4.5945012,8.97776442 4.80483774,9.18810096 4.80483774,9.45227364 C4.80483774,9.71644631 4.60326522,9.93429487 4.33909255,9.93429487 L4.33909255,9.93429487 Z M7.5630008,1.88641827 L9.44601362,1.88641827 C9.70267428,1.88641827 9.92052284,2.09675481 9.92803486,2.3684395 L9.92803486,4.25145232 C9.92803486,4.515625 9.71769832,4.72596154 9.45352564,4.72596154 C9.3208133,4.72596154 9.204377,4.6708734 9.11924079,4.58573718 C9.03410457,4.50060096 8.97901643,4.37540064 8.97901643,4.25145232 L8.97901643,3.52153446 L7.27378806,5.22676282 C7.08723958,5.4133113 6.7830028,5.4133113 6.59645433,5.22676282 C6.40990585,5.04021434 6.40990585,4.73597756 6.59645433,4.54942909 L8.30168269,2.84420072 L7.57051282,2.84420072 C7.30634014,2.84420072 7.09600361,2.63386418 7.09600361,2.36969151 C7.09600361,2.10551883 7.29757612,1.88641827 7.5630008,1.88641827 L7.5630008,1.88641827 Z" id="全屏"></path>
                    </g>
                </g>
            </g>
        </g>
    </g>
</svg>