<?xml version="1.0" encoding="UTF-8"?>
<svg width="14px" height="14px" viewBox="0 0 14 14" version="1.1" xmlns="http://www.w3.org/2000/svg" xmlns:xlink="http://www.w3.org/1999/xlink">
    <!-- Generator: Sketch 63.1 (92452) - https://sketch.com -->
    <title>成交</title>
    <desc>Created with Sketch.</desc>
    <g id="页面-1" stroke="none" stroke-width="1" fill="none" fill-rule="evenodd" fill-opacity="0.45">
        <g id="4-|-创建计划策略配置用户筛选按用户行为筛选" transform="translate(-663.000000, -109.000000)" fill="#16324E" fill-rule="nonzero">
            <g id="编组-3" transform="translate(65.000000, 109.000000)">
                <g id="成交" transform="translate(598.000000, 0.000000)">
                    <path d="M6.944,9.416 C5.6185166,9.416 4.544,8.3414834 4.544,7.016 C4.544,5.6905166 5.6185166,4.616 6.944,4.616 C8.2694834,4.616 9.344,5.6905166 9.344,7.016 C9.344,7.65251958 9.09114358,8.26296897 8.64105627,8.71305627 C8.19096897,9.16314358 7.58051958,9.416 6.944,9.416 Z M6.944,5.65599414 C6.38835312,5.65438239 5.88659347,5.9880651 5.67320869,6.501108 C5.45982392,7.01415089 5.57695197,7.60524135 5.96985531,7.99814469 C6.36275865,8.39104803 6.95384911,8.50817608 7.466892,8.29479131 C7.9799349,8.08140653 8.31361761,7.57964688 8.31200586,7.024 C8.30980315,6.2693863 7.6986137,5.65819685 6.944,5.65599414 Z" id="形状"></path>
                    <path d="M6.92,13.864 C6.78320306,13.8672323 6.65088687,13.8151414 6.55300704,13.7195204 C6.4551272,13.6238993 6.39996182,13.4928351 6.4,13.356 L6.4,12.836 L6.296,12.836 C3.58208724,12.5225424 1.44484124,10.3753403 1.144,7.66 L1.144,7.556 L0.508,7.556 C0.227439355,7.55599999 2.14105995e-08,7.32856064 2.14105995e-08,7.048 C2.14105995e-08,6.76743936 0.227439355,6.54000001 0.508,6.54 L1.128,6.54 L1.128,6.432 C1.41974373,3.69002972 3.58602972,1.52374373 6.328,1.232 L6.436,1.232 L6.436,0.508 C6.436,0.227439347 6.66343935,0 6.944,0 C7.22456065,0 7.452,0.227439347 7.452,0.508 L7.452,1.2 L7.556,1.2 C10.307336,1.49414755 12.4766317,3.67512409 12.756,6.428 L12.756,6.532 L13.352,6.532 C13.6162124,6.55542197 13.8187894,6.77675151 13.8187894,7.042 C13.8187894,7.30724849 13.6162124,7.52857803 13.352,7.552 L12.752,7.552 L12.752,7.656 C12.4363716,10.3778698 10.2766797,12.5176261 7.552,12.808 L7.448,12.808 L7.448,13.324 C7.45719594,13.4677305 7.40494995,13.6086091 7.30425996,13.7115875 C7.20356997,13.8145659 7.06390085,13.8699641 6.92,13.864 L6.92,13.864 Z M6.92,10.464 C7.0554217,10.4629337 7.18566347,10.5159838 7.28179883,10.6113681 C7.37793419,10.7067524 7.4320042,10.8365741 7.432,10.972 L7.432,11.94 L7.564,11.94 C9.77799024,11.6557415 11.5269072,9.92321552 11.832,7.712 L11.852,7.576 L10.972,7.576 C10.7077876,7.55257803 10.5052106,7.33124849 10.5052106,7.066 C10.5052106,6.80075151 10.7077876,6.57942197 10.972,6.556 L11.86,6.556 L11.86,6.428 C11.5909237,4.18962281 9.83603366,2.41990273 7.6,2.132 L7.468,2.132 L7.468,2.932 C7.468,3.21256065 7.24056065,3.44 6.96,3.44 C6.67943935,3.44 6.452,3.21256065 6.452,2.932 L6.452,2.112 L6.316,2.112 C4.07922074,2.39673938 2.32037563,4.16217192 2.044,6.4 L2.044,6.536 L2.892,6.536 C3.17256065,6.536 3.4,6.76343935 3.4,7.044 C3.4,7.32456065 3.17256065,7.552 2.892,7.552 L2.032,7.552 L2.032,7.684 C2.33427189,9.89063467 4.07251908,11.6239716 6.28,11.92 L6.412,11.92 L6.412,10.972 C6.412,10.6914393 6.63943935,10.464 6.92,10.464 Z" id="形状"></path>
                </g>
            </g>
        </g>
    </g>
</svg>