<?xml version="1.0" encoding="UTF-8"?>
<svg width="10px" height="10px" viewBox="0 0 10 10" version="1.1" xmlns="http://www.w3.org/2000/svg" xmlns:xlink="http://www.w3.org/1999/xlink">
    <!-- Generator: Sketch 63.1 (92452) - https://sketch.com -->
    <title>保存</title>
    <desc>Created with Sketch.</desc>
    <defs>
        <linearGradient x1="50%" y1="0.368316004%" x2="50%" y2="99.6422026%" id="linearGradient-1">
            <stop stop-color="#918CFF" offset="0.0211148649%"></stop>
            <stop stop-color="#554EFD" offset="100%"></stop>
        </linearGradient>
    </defs>
    <g id="页面-1" stroke="none" stroke-width="1" fill="none" fill-rule="evenodd">
        <g id="9-|-创建计划未来样式备份-2" transform="translate(-239.000000, -63.000000)" fill="url(#linearGradient-1)">
            <g id="保存备份5" transform="translate(224.000000, 48.000000)">
                <g id="1通用-/-2Icon图标-/-Fill-/-开发-/-运行" transform="translate(14.000000, 14.000000)">
                    <path d="M2.57142857,1.14285714 L2.57142857,4.73714286 C2.57168315,5.13547718 2.84631898,5.48113952 3.23428571,5.57142857 L3.23428571,5.57142857 L8.76571429,5.57142857 C9.15368102,5.48113952 9.42831685,5.13547718 9.42857143,4.73714286 L9.42857143,4.73714286 L9.42857143,1.14285714 L10.2857143,1.14285714 C10.6013056,1.14285714 10.8571429,1.39869443 10.8571429,1.71428571 L10.8571429,1.71428571 L10.8571429,10.2857143 C10.8571429,10.6013056 10.6013056,10.8571429 10.2857143,10.8571429 L10.2857143,10.8571429 L1.71428571,10.8571429 C1.39869443,10.8571429 1.14285714,10.6013056 1.14285714,10.2857143 L1.14285714,10.2857143 L1.14285714,1.71428571 C1.14285714,1.39869443 1.39869443,1.14285714 1.71428571,1.14285714 L1.71428571,1.14285714 L2.57142857,1.14285714 Z M8.59142857,1.14285714 L8.59142857,4.70571429 L3.40857143,4.70571429 L3.40857143,1.14285714 L8.59142857,1.14285714 Z M7.5,2.43714286 C7.22285714,2.43714286 7,2.58285714 7,2.76285714 L7,2.76285714 L7,3.73428571 C7,3.91142857 7.22285714,4.05714286 7.5,4.05714286 C7.77714286,4.05714286 8,3.91142857 8,3.73428571 L8,3.73428571 L8,2.76285714 C8,2.57142857 7.77714286,2.43714286 7.5,2.43714286 Z" id="保存"></path>
                </g>
            </g>
        </g>
    </g>
</svg>