<?xml version="1.0" encoding="UTF-8"?>
<svg width="14px" height="14px" viewBox="0 0 14 14" version="1.1" xmlns="http://www.w3.org/2000/svg" xmlns:xlink="http://www.w3.org/1999/xlink">
    <!-- Generator: Sketch 63.1 (92452) - https://sketch.com -->
    <title>时间</title>
    <desc>Created with Sketch.</desc>
    <g id="页面-1" stroke="none" stroke-width="1" fill="none" fill-rule="evenodd" fill-opacity="0.45">
        <g id="4-|-创建计划策略配置用户筛选按用户行为筛选" transform="translate(-319.000000, -109.000000)" fill="#16324E" fill-rule="nonzero">
            <g id="编组-3" transform="translate(65.000000, 109.000000)">
                <g id="时间" transform="translate(254.000000, 0.000000)">
                    <path d="M7.264,13.724 C4.77296609,13.7848694 2.44458666,12.4909714 1.18074892,10.3434917 C-0.0830888264,8.19601197 -0.0838652012,5.53226986 1.17872052,3.38405378 C2.44130624,1.23583771 4.76893103,-0.0594172662 7.26,-8.67361738e-19 L7.296,-8.67361738e-19 C11.0213386,0.0982213528 13.987759,3.15099699 13.9790887,6.8776201 C13.9703804,10.6042432 10.9897562,13.6431522 7.264,13.724 L7.264,13.724 Z M7.09999996,1.2 C3.95197689,1.2 1.4,3.75197698 1.4,6.90000004 C1.4,10.0480231 3.95197689,12.6000001 7.09999996,12.6000001 C10.2480231,12.6000001 12.8,10.0480231 12.8,6.90000004 C12.8,3.75197694 10.2480231,1.2 7.09999996,1.2 Z M6.584,8.3 C6.41852797,8.29790633 6.28428507,8.16542979 6.28,8 L6.28,4.4 C6.28,4.23144623 6.41546044,4.09418901 6.584,4.092 L7.036,4.092 C7.20453956,4.09418901 7.34001421,4.23144623 7.34,4.4 L7.34,7.26 L10.228,7.26 C10.3873823,7.27062978 10.5104839,7.40428299 10.5080369,7.564 L10.5080369,8 C10.5058443,8.16920273 10.3692027,8.30584429 10.2,8.308 L6.584,8.3 Z" id="形状"></path>
                </g>
            </g>
        </g>
    </g>
</svg>