<?xml version="1.0" encoding="UTF-8"?>
<svg width="21px" height="22px" viewBox="0 0 21 22" version="1.1" xmlns="http://www.w3.org/2000/svg" xmlns:xlink="http://www.w3.org/1999/xlink">
    <!-- Generator: Sketch 63.1 (92452) - https://sketch.com -->
    <title>等待</title>
    <desc>Created with Sketch.</desc>
    <defs>
        <linearGradient x1="50%" y1="0%" x2="50%" y2="100%" id="linearGradient-1">
            <stop stop-color="#86D4FF" offset="0%"></stop>
            <stop stop-color="#2592FF" offset="100%"></stop>
        </linearGradient>
        <linearGradient x1="50%" y1="0%" x2="50%" y2="100%" id="linearGradient-2">
            <stop stop-color="#86D4FF" offset="0%"></stop>
            <stop stop-color="#2592FF" offset="100%"></stop>
        </linearGradient>
    </defs>
    <g id="页面-1" stroke="none" stroke-width="1" fill="none" fill-rule="evenodd">
        <g id="2-|-创建计划开始控件定时触发" transform="translate(-110.000000, -755.000000)" fill-rule="nonzero">
            <g id="编组14" transform="translate(64.000000, 688.000000)">
                <g id="等待" transform="translate(46.008304, 67.000000)">
                    <path d="M19.1171294,19.5593318 L17.8245128,19.5593318 L17.8245128,17.2122016 C17.8245128,14.4908978 16.1237017,12.1437893 13.6745305,10.9532094 C16.123706,9.76264035 17.8245128,7.44952889 17.8245128,4.69421718 L17.8245128,2.34713018 L19.1171294,2.34713018 C19.7974543,2.34713018 20.4097503,1.80286943 20.4097503,1.15656113 C20.4097503,0.510252827 19.7974391,1.13686838e-13 19.1171294,1.13686838e-13 L1.2926166,1.13686838e-13 C0.612291732,1.13686838e-13 -9.9475983e-14,0.544260757 -9.9475983e-14,1.19056906 C-9.9475983e-14,1.83687736 0.578277324,2.38113811 1.2926166,2.38113811 L2.5852332,2.38113811 L2.5852332,4.72826829 C2.5852332,7.44957208 4.28604428,9.79668067 6.73521553,10.9872605 C4.25203204,12.1097964 2.55122527,14.4569115 2.55122527,17.1782153 L2.55122527,19.5253455 L1.2926166,19.5253455 C0.612291732,19.5253455 -9.9475983e-14,20.0696062 -9.9475983e-14,20.7159145 C-9.9475983e-14,21.3282063 0.578275165,21.9064836 1.2926166,21.9064836 L19.1171337,21.9064836 C19.7974586,21.9064836 20.4097503,21.3622228 20.4097503,20.7159145 C20.4097503,20.1036228 19.7974586,19.559362 19.1171337,19.559362 L19.1171294,19.5593318 Z" id="路径" fill="url(#linearGradient-1)"></path>
                    <path d="M4.25203635,17.2122232 C4.25203635,15.1712486 5.54465295,13.3003612 7.48358865,12.3479016 C8.06186381,12.1097878 8.40202732,11.5655292 8.40202732,10.9532353 C8.40202732,10.4089746 8.06186597,9.86471596 7.48358865,9.55856902 C5.54466375,8.60611377 4.25203635,6.73521985 4.25203635,4.69424741 L4.25203635,2.34713018 L16.1577269,2.34713018 L16.1577269,4.69426036 C16.1577269,6.73523496 14.8651103,8.60612241 12.9261746,9.55858197 C12.3478995,9.79669578 12.0077359,10.3409544 12.0077359,10.9532483 C12.0077359,11.497509 12.3478973,12.0417676 12.9261746,12.3479146 C14.8650995,13.3003698 16.1577269,15.1712637 16.1577269,17.2122362 L16.1577269,19.5593664 L4.25203635,19.5593664 L4.25203635,17.2122362 L4.25203635,17.2122232 Z" id="路径" fill="#E6F6FF"></path>
                    <path d="M12.0757604,13.6745348 C11.4974853,13.3683878 10.8851914,13.0622431 10.3749494,12.6540486 L10.2048682,12.4499511 L10.0347871,12.5860161 C9.52454295,13.0622437 8.91225122,13.3683885 8.33397605,13.6065023 C6.90529318,14.3888747 5.95283794,15.6474769 5.95283794,17.2122282 L5.95283794,17.9946006 L14.4568934,17.9946006 L14.4568934,17.2122282 C14.4568934,15.6474812 13.5044381,14.388879 12.0757553,13.6745397 L12.0757604,13.6745348 Z M10.2048708,9.456515 L10.4770012,9.21840119 C10.9872454,8.74217356 11.5995371,8.43602878 12.1778123,8.12988183 C12.7560875,7.89176802 13.3003482,7.4155404 13.6064952,6.93931277 L6.8032573,6.93931277 C7.24546836,7.4155404 7.65366285,7.78971832 8.23194017,8.12988183 C8.81021749,8.47004534 9.42250923,8.74217356 9.93275126,9.21840119 L10.2048816,9.456515 L10.2048708,9.456515 Z" id="形状" fill="url(#linearGradient-2)"></path>
                </g>
            </g>
        </g>
    </g>
</svg>