<?xml version="1.0" encoding="UTF-8"?>
<svg width="22px" height="22px" viewBox="0 0 22 22" version="1.1" xmlns="http://www.w3.org/2000/svg" xmlns:xlink="http://www.w3.org/1999/xlink">
    <!-- Generator: Sketch 63.1 (92452) - https://sketch.com -->
    <title>微信小程序</title>
    <desc>Created with Sketch.</desc>
    <defs>
        <linearGradient x1="50%" y1="0%" x2="50%" y2="100%" id="linearGradient-1">
            <stop stop-color="#BFEEA9" offset="0%"></stop>
            <stop stop-color="#61BA46" offset="100%"></stop>
        </linearGradient>
    </defs>
    <g id="页面-1" stroke="none" stroke-width="1" fill="none" fill-rule="evenodd">
        <g id="2-|-创建计划开始控件定时触发" transform="translate(-205.000000, -193.000000)" fill="url(#linearGradient-1)" fill-rule="nonzero">
            <g id="营销动作" transform="translate(64.000000, 128.000000)">
                <g id="编组2" transform="translate(112.000000, 48.000000)">
                    <g id="编组" transform="translate(29.000000, 17.000000)">
                        <path d="M11,0 C4.92417127,0 0,4.92417127 0,11 C0,17.0758287 4.92417127,22 11,22 C17.0758287,22 22,17.0773481 22,11 C22,4.92265194 17.0773481,0 11,0 Z M17.4881768,10.0686464 C16.9698954,10.8942768 16.1625727,11.4971688 15.2237569,11.7596685 C15.1991436,11.7666575 15.1751381,11.7742541 15.1505249,11.7806354 C15.0024924,11.8244695 14.8491001,11.8475806 14.6947238,11.8493094 C14.0234807,11.8493094 13.6442541,11.3962431 13.8481492,10.8365193 C14.0347819,10.396101 14.4072027,10.0611894 14.8648895,9.92218232 C15.5796566,9.70739656 16.0826477,9.06701616 16.121989,8.3217127 C16.121989,7.35754144 15.1839503,6.57569061 14.0268232,6.57569061 C12.8696961,6.57569061 11.9301381,7.35754144 11.9301381,8.3217127 L11.9301381,13.6773757 C11.9060729,14.9575024 11.1942202,16.1253821 10.0674309,16.7333702 C9.42877985,17.0975447 8.70592953,17.2882095 7.97074586,17.2864215 C5.78837017,17.2864215 4.01287292,15.6674033 4.01287292,13.6773757 C4.01403758,13.0606941 4.18588988,12.4563714 4.50939226,11.9313536 C5.02984268,11.1015318 5.84211799,10.4966344 6.78627071,10.2357735 L6.78900553,10.2357735 C6.95167388,10.1841001 7.12122997,10.1573604 7.29190606,10.1564641 C7.96618783,10.1564641 8.34693369,10.6122652 8.14273481,11.1738121 C7.96077906,11.5851671 7.61860721,11.904286 7.19558011,12.0571547 C7.14422652,12.0741713 7.09317679,12.0933149 7.0436464,12.1142818 C6.37257161,12.3493495 5.9109824,12.9677661 5.87649172,13.6779834 C5.87649172,14.6424586 6.81422652,15.4243094 7.97165746,15.4243094 C9.1290884,15.4243094 10.0683426,14.6424586 10.0683425,13.6779834 L10.0683425,8.32232044 C10.0925165,7.04230334 10.804354,5.87456473 11.9310497,5.26662984 C12.5692429,4.90268535 13.291543,4.71202745 14.0262155,4.71358162 C16.2085912,4.71358162 17.9840884,6.33229283 17.9840884,8.32232044 C17.982964,8.93910306 17.8111108,9.54353421 17.4875691,10.0686464 L17.4881768,10.0686464 Z" id="微信小程序"></path>
                    </g>
                </g>
            </g>
        </g>
    </g>
</svg>