<?xml version="1.0" encoding="UTF-8"?>
<svg width="26px" height="21px" viewBox="0 0 26 21" version="1.1" xmlns="http://www.w3.org/2000/svg" xmlns:xlink="http://www.w3.org/1999/xlink">
    <!-- Generator: Sketch 63.1 (92452) - https://sketch.com -->
    <title>微信服务号</title>
    <desc>Created with Sketch.</desc>
    <defs>
        <linearGradient x1="50%" y1="0%" x2="50%" y2="100%" id="linearGradient-1">
            <stop stop-color="#BFEEA9" offset="0%"></stop>
            <stop stop-color="#61BA46" offset="100%"></stop>
        </linearGradient>
    </defs>
    <g id="页面-1" stroke="none" stroke-width="1" fill="none" fill-rule="evenodd">
        <g id="2-|-创建计划开始控件定时触发" transform="translate(-107.000000, -194.000000)" fill="url(#linearGradient-1)" fill-rule="nonzero">
            <g id="营销动作" transform="translate(64.000000, 128.000000)">
                <g id="编组2" transform="translate(16.000000, 48.000000)">
                    <g id="编组" transform="translate(27.000000, 18.000000)">
                        <path d="M9.74123989,0 C4.34501346,0 0,3.50404311 0,7.77897575 C0.0700808516,10.3018868 1.47169811,12.5444744 3.57412399,13.8059299 L2.5929919,16.819407 L5.81671157,14.8571428 C7.00808625,15.277628 8.33962263,15.4878706 9.60107815,15.4878706 C9.25067383,14.6469003 9.04043124,13.8059299 9.04043127,12.8948787 C9.04043127,8.6199461 13.1051213,5.11590296 18.1509434,5.11590296 C18.361186,5.11590296 18.6415094,5.11590296 18.851752,5.18598381 C17.5902965,2.24258758 14.0161725,0.0700808516 9.74123989,0 M5.81671157,3.29380052 C6.51752019,3.29380052 7.14824798,3.85444743 7.14824798,4.62533693 C7.14824798,5.32614555 6.58760107,5.95687331 5.81671157,5.95687331 C5.11590296,5.95687331 4.48517519,5.3962264 4.48517519,4.62533693 C4.55525605,3.85444743 5.11590296,3.29380052 5.81671157,3.29380052 M12.3342318,3.29380052 C13.0350404,3.29380052 13.6657682,3.85444743 13.6657682,4.62533693 C13.6657682,5.32614555 13.1051213,5.95687331 12.3342318,5.95687331 C11.5633423,5.95687331 11.0026954,5.3962264 11.0026954,4.62533693 C11.0026954,3.85444743 11.6334232,3.29380052 12.3342318,3.29380052 M18.1509434,6.51752022 C13.8760108,6.51752022 10.3719677,9.3908356 10.3719677,13.0350404 C10.3719677,16.6091644 13.8760108,19.5525607 18.1509434,19.5525607 C18.9919138,19.5525607 19.8328841,19.4824798 20.6037736,19.2021563 L23.3369272,20.8140162 L22.5660377,18.361186 C24.5983828,17.309973 25.8598383,15.277628 26,13.0350404 C25.9299191,9.46091645 22.4959569,6.51752022 18.1509434,6.51752022 M15.5579515,9.74123989 C16.2587601,9.74123989 16.8894879,10.3018868 16.8894879,11.0727763 C16.8894879,11.8436657 16.328841,12.4043127 15.5579515,12.4043127 C14.787062,12.4043127 14.2264151,11.8436658 14.2264151,11.0727763 C14.2964959,10.3719677 14.8571428,9.74123989 15.5579515,9.74123989 M20.7439353,9.74123989 C21.4447439,9.74123989 22.0754717,10.3018868 22.0754717,11.0727763 C22.0754717,11.8436657 21.5148248,12.4043127 20.7439353,12.4043127 C20.0431267,12.4043127 19.4123989,11.8436658 19.4123989,11.0727763 C19.4824798,10.3719677 20.0431267,9.74123989 20.7439353,9.74123989 Z" id="微信服务号"></path>
                    </g>
                </g>
            </g>
        </g>
    </g>
</svg>