<?xml version="1.0" encoding="UTF-8"?>
<svg width="81px" height="80px" viewBox="0 0 81 80" version="1.1" xmlns="http://www.w3.org/2000/svg" xmlns:xlink="http://www.w3.org/1999/xlink">
    <!-- Generator: Sketch 63 (92445) - https://sketch.com -->
    <title>编组 23</title>
    <desc>Created with Sketch.</desc>
    <defs>
        <linearGradient x1="26.4114234%" y1="8.6802109%" x2="77.3710216%" y2="94.1966412%" id="linearGradient-1">
            <stop stop-color="#86D4FF" stop-opacity="0.1" offset="0%"></stop>
            <stop stop-color="#86D4FF" offset="100%"></stop>
        </linearGradient>
        <circle id="path-2" cx="40" cy="40" r="40"></circle>
        <linearGradient x1="50%" y1="0%" x2="50%" y2="100%" id="linearGradient-4">
            <stop stop-color="#86D4FF" offset="0%"></stop>
            <stop stop-color="#2592FF" offset="100%"></stop>
        </linearGradient>
    </defs>
    <g id="视觉稿0610" stroke="none" stroke-width="1" fill="none" fill-rule="evenodd">
        <g id="客户分析0610" transform="translate(-982.000000, -152.000000)">
            <g id="编组-5备份-2" transform="translate(62.000000, 120.000000)">
                <g id="编组-4备份-2" transform="translate(688.333333, 0.000000)">
                    <g id="编组-23" transform="translate(232.000000, 32.000000)">
                        <g id="位图" opacity="0.600000024">
                            <mask id="mask-3" fill="white">
                                <use xlink:href="#path-2"></use>
                            </mask>
                            <use id="蒙版" fill="url(#linearGradient-1)" opacity="0.300000012" xlink:href="#path-2"></use>
                            <path d="M46.1358964,39.8396382 C53.3675987,39.8396382 59.2680921,46.5008224 59.2680921,54.7039474 L59.2680921,54.7039474 L59.2680921,59.9876645 L32.1299342,59.9876645 L32.1299342,54.7090872 C32.1299342,50.7771382 33.4765625,47.0713405 35.9333882,44.2598684 C38.4261924,41.4021382 41.7310855,39.8396382 45.2569901,39.8396382 L45.2569901,39.8396382 Z M34.0059622,39.8396382 C35.2497944,39.8396382 36.457648,40.0349507 37.5986842,40.4050164 C36.8585526,40.8984375 36.1595395,41.4638158 35.4965049,42.1062911 L35.886,41.741 C35.8780316,41.7495636 35.868941,41.7577738 35.8598583,41.7659957 L35.4965049,42.1062911 L35.4965049,42.1062911 L35.2009663,42.3973324 C34.9773849,42.6241262 34.7589433,42.8592722 34.5456414,43.1034128 C31.7907072,46.2541118 30.2744655,50.4122122 30.2744655,54.8016036 L30.2744655,54.8016036 L30.2796053,54.8016036 L30.2796053,59.9876645 L20,59.9876645 L20,54.7090872 C20,50.7771382 21.3466283,47.0713405 23.8034539,44.2598684 C26.2962582,41.4021382 29.6011513,39.8396382 33.1270559,39.8396382 L33.1270559,39.8396382 Z M33.8312089,20 C35.3885691,20 36.8585526,20.4882812 38.0561266,21.3363487 L38.0561266,21.3363487 L32.0528372,24.8314145 L36.5501645,28.0849095 L36.5501645,31.2664474 C36.5501645,33.3634868 37.2491776,35.3063322 38.4416118,36.8379934 C37.1823602,37.8659539 35.5581826,38.5032895 33.8312089,38.5032895 L33.8312089,38.5032895 L33.8312089,38.5084293 L33.3120888,38.5084293 C29.3595806,38.5084293 26.224301,35.2240954 26.224301,31.2715872 L26.224301,31.2715872 L26.224301,27.1751645 L23.2072368,25.0061678 L28.2853618,22.0353618 C29.5857319,20.7606908 31.3589638,20 33.306949,20 L33.306949,20 Z M45.9560033,20 C49.9136513,20 53.254523,23.1815378 53.254523,27.1340461 L53.254523,27.1340461 L53.254523,31.2664474 C53.254523,35.2189556 49.9085115,38.5032895 45.9560033,38.5032895 L45.9560033,38.5032895 L45.4368832,38.5032895 C41.484375,38.5032895 38.3490954,35.2189556 38.3490954,31.2664474 L38.3490954,31.2664474 L38.3490954,27.1751645 L35.3320313,25.0061678 L40.4101563,22.0353618 C41.7105263,20.7606908 43.4837582,20 45.4317434,20 L45.4317434,20 Z" id="形状结合" fill="url(#linearGradient-4)" fill-rule="nonzero" mask="url(#mask-3)"></path>
                        </g>
                        <path d="M41.6509046,32.40625 C42.5143914,34.0530428 44.0625,35.0583882 45.8388158,35.0583882 L46.1965461,35.0583882 C47.9728618,35.0583882 49.5456414,34.0530428 50.4276316,32.40625 L41.6509046,32.40625 Z" id="路径" fill="#FFFFFF" fill-rule="nonzero"></path>
                    </g>
                </g>
            </g>
        </g>
    </g>
</svg>