<?xml version="1.0" encoding="UTF-8"?>
<svg width="80px" height="80px" viewBox="0 0 80 80" version="1.1" xmlns="http://www.w3.org/2000/svg" xmlns:xlink="http://www.w3.org/1999/xlink">
    <!-- Generator: Sketch 63 (92445) - https://sketch.com -->
    <title>位图</title>
    <desc>Created with Sketch.</desc>
    <defs>
        <linearGradient x1="26.4114234%" y1="8.6802109%" x2="77.3710216%" y2="94.1966412%" id="linearGradient-1">
            <stop stop-color="#BFEEA9" stop-opacity="0.1" offset="0%"></stop>
            <stop stop-color="#BFEEA9" offset="100%"></stop>
        </linearGradient>
        <linearGradient x1="50%" y1="0%" x2="50%" y2="100%" id="linearGradient-2">
            <stop stop-color="#BFEEA9" offset="0%"></stop>
            <stop stop-color="#61BA46" offset="100%"></stop>
        </linearGradient>
    </defs>
    <g id="视觉稿0610" stroke="none" stroke-width="1" fill="none" fill-rule="evenodd">
        <g id="客户分析0610" transform="translate(-294.000000, -152.000000)">
            <g id="编组-5备份-2" transform="translate(62.000000, 120.000000)">
                <g id="编组-4" transform="translate(0.000000, 1.000000)">
                    <g id="位图" transform="translate(232.000000, 31.000000)">
                        <circle id="蒙版" fill="url(#linearGradient-1)" opacity="0.300000012" cx="40" cy="40" r="40"></circle>
                        <g id="编组-2" opacity="0.600000024">
                            <g id="运行" transform="translate(17.142857, 17.142857)">
                                <path d="M30.5736393,2.5 C32.5945043,2.5 34.2324053,4.11107538 34.2324053,6.10036436 L34.2324053,6.10036436 L34.2324053,26.4624234 L23.5270183,36.9934903 C22.77115,37.7283546 22.3377016,38.7559722 22.3377016,39.8130236 L22.3377016,39.8130236 L22.3377016,43.2827993 C22.3377016,43.5847274 22.3752855,43.8777137 22.4398347,44.160361 L22.4398347,44.160361 L6.15899887,44.160361 C4.13836674,44.160361 2.5,42.5494253 2.5,40.5599966 L2.5,40.5599966 L2.5,13.7824643 C2.5,13.7419464 2.51336625,13.7060857 2.52249442,13.6655213 C2.53138973,13.6251897 2.53138973,13.5935671 2.5452217,13.5621773 C2.5855533,13.4135186 2.64833276,13.2785521 2.75638048,13.1705044 L2.75638048,13.1705044 L13.3371866,2.75638048 C13.4450015,2.64865876 13.5891427,2.5855533 13.7377549,2.54498884 C13.7780399,2.53609353 13.8094297,2.53138973 13.8455232,2.52221498 C13.8860877,2.51331968 13.9177102,2.5 13.9535709,2.5 L13.9535709,2.5 Z M42.1488105,26.4196701 L43.440493,27.6888582 C44.4079859,28.638607 44.4079859,30.1731176 43.4449174,31.1180694 L30.4521322,43.8995096 C30.2857294,44.065959 30.0607386,44.1512328 29.826806,44.1512328 L26.3028668,44.1512328 C25.8167451,44.1512328 25.4161768,43.7598393 25.4161768,43.2828458 L25.4161768,39.812977 C25.4161768,39.5879863 25.5106255,39.3582917 25.6728368,39.2007842 L38.6653891,26.4196701 C39.6284576,25.4702473 41.1854625,25.4702473 42.1488105,26.4196701 Z M14.1063746,5.97867095 L6.53227581,13.4313558 L12.0543527,13.4313558 C13.1878292,13.4313558 14.1063746,12.5127638 14.1063746,11.3793339 L14.1063746,11.3793339 L14.1063746,5.97867095 Z" id="形状结合备份" fill="url(#linearGradient-2)"></path>
                                <path d="M25.0202658,25.6229578 C25.0202658,25.9063968 24.7902452,26.1360914 24.5071322,26.1360914 L20.231749,26.1360914 L20.231749,30.488086 C20.231749,30.7714318 20.0018216,31.0008935 19.7187086,31.0008935 L18.6206271,31.0008935 C18.3372813,31.0008935 18.1075867,30.7714318 18.1075867,30.488086 L18.1075867,26.1360914 L13.8546979,26.1360914 C13.5711192,26.1360914 13.3416575,25.9063968 13.3416575,25.6229578 L13.3416575,24.9074211 C13.3416575,24.6240753 13.5711192,24.3942876 13.8546979,24.3942876 L18.1075867,24.3942876 L18.1075867,22.5131395 L13.8546979,22.5131395 C13.5711192,22.5131395 13.3416575,22.2834449 13.3416575,22.0000991 L13.3416575,21.2934576 C13.3416575,21.0101118 13.5711192,20.7806035 13.8546979,20.7806035 L17.4278641,20.7806035 L13.441788,16.8642927 C13.2496773,16.5223124 13.4969296,16.1002277 13.8890683,16.1002277 L15.0944524,16.1002277 C15.2840314,16.1002277 15.4581716,16.2047418 15.5474611,16.371977 L19.1648709,20.0245023 L22.7825136,16.371977 C22.8717171,16.2047934 23.0457499,16.1002277 23.2352429,16.1002277 L24.4409064,16.1002277 C24.8330451,16.1002277 25.0802975,16.5223124 24.8884196,16.8642927 L20.9023435,20.7806035 L24.4980041,20.7806035 C24.7813499,20.7806035 25.0110445,21.0101118 25.0110445,21.2934576 L25.0110445,22.0089944 C25.0110445,22.2923402 24.7813499,22.5221279 24.4980041,22.5221279 L20.2317956,22.5221279 L20.2317956,24.4035089 L24.5071788,24.4035089 C24.7902918,24.4035089 25.0202658,24.6332034 25.0202658,24.9165493 L25.0202658,25.6229578 L25.0202658,25.6229578 Z" id="路径" fill="#FFFFFF"></path>
                                <rect id="矩形" x="0" y="0" width="45.7142857" height="45.7142857"></rect>
                            </g>
                        </g>
                        <g id="编组" transform="translate(20.000000, 20.000000)"></g>
                    </g>
                </g>
            </g>
        </g>
    </g>
</svg>