<?xml version="1.0" encoding="UTF-8"?>
<svg width="96px" height="96px" viewBox="0 0 96 96" version="1.1" xmlns="http://www.w3.org/2000/svg" xmlns:xlink="http://www.w3.org/1999/xlink">
    <!-- Generator: Sketch 63.1 (92452) - https://sketch.com -->
    <title>位图</title>
    <desc>Created with Sketch.</desc>
    <defs>
        <linearGradient x1="26.4114234%" y1="8.6802109%" x2="77.3710216%" y2="94.1966412%" id="linearGradient-1">
            <stop stop-color="#FFFFFF" stop-opacity="0.1" offset="0%"></stop>
            <stop stop-color="#FFFFFF" offset="100%"></stop>
        </linearGradient>
        <filter x="0.0%" y="0.0%" width="100.0%" height="100.0%" filterUnits="objectBoundingBox" id="filter-2">
            <feGaussianBlur stdDeviation="0" in="SourceGraphic"></feGaussianBlur>
        </filter>
        <linearGradient x1="50%" y1="3.50435719%" x2="50%" y2="99.6422026%" id="linearGradient-3">
            <stop stop-color="#FFFFFF" offset="0%"></stop>
            <stop stop-color="#FFFFFF" stop-opacity="0.3848066" offset="100%"></stop>
        </linearGradient>
    </defs>
    <g id="模版页面" stroke="none" stroke-width="1" fill="none" fill-rule="evenodd">
        <g id="标签集市" transform="translate(-391.000000, -168.000000)">
            <g id="编组-5备份-2" transform="translate(63.000000, 152.000000)">
                <g id="编组-4">
                    <g id="位图" transform="translate(328.000000, 16.000000)">
                        <circle id="蒙版" fill="url(#linearGradient-1)" opacity="0.12" filter="url(#filter-2)" cx="48" cy="48" r="48"></circle>
                        <g id="编组-2" transform="translate(23.000000, 23.000000)">
                            <g id="运行" transform="translate(0.510204, 0.510204)">
                                <rect id="矩形" x="0" y="0" width="48.9795918" height="48.9795918"></rect>
                                <g id="1.通用/2.Icon图标/Fill/标签" transform="translate(0.382653, 0.382653)" fill-rule="nonzero">
                                    <g id="编组">
                                        <rect id="矩形" fill-opacity="0.01" fill="#FFFFFF" x="0" y="0" width="48.2142857" height="48.2142857"></rect>
                                        <g transform="translate(1.785714, 6.250000)" fill="url(#linearGradient-3)" id="形状">
                                            <path d="M45.5603836,19.9258316 L28.0603836,2.26550792 C27.4460593,1.64369192 26.5912496,1.10653281 25.5656278,0.657027259 C24.5062931,0.207521708 23.5660774,0 22.7112676,0 L17.2085706,0 C18.0633803,0 19.037309,0.207521708 20.0629308,0.657027259 C21.1222655,1.10653281 21.9433623,1.60848067 22.5576866,2.26550792 L40.0584357,19.9258316 C40.6735091,20.583608 40.9641894,21.3267905 40.9641894,22.1920887 C40.9641894,23.0573869 40.6735092,23.8013186 40.0576866,24.4238837 L28.5915493,36.064579 C29.0860054,36.5665268 29.5310159,36.9298771 29.8898711,37.171861 C30.2494756,37.4138448 30.7439317,37.5 31.3252922,37.5 C32.1801019,37.5 32.9150435,37.206323 33.5638298,36.5837579 L45.5611328,24.4059035 C46.175457,23.7840875 46.4496554,23.0394067 46.4496554,22.1748577 C46.4496554,21.3103087 46.1589752,20.6015882 45.5611328,19.9258316 M10.0314654,10.1880431 C9.41639198,10.8106083 8.68145042,11.1042853 7.82664071,11.1042853 C6.97258017,11.1042853 6.23838777,10.8106083 5.62256516,10.1880431 C5.00674255,9.56547799 4.71606231,8.82154629 4.71606231,7.95624812 C4.71606231,7.09169912 5.00674255,6.34776746 5.62256516,5.7252023 C6.23763858,5.10263714 6.97258014,4.80821099 7.82664071,4.80821099 C8.68145042,4.80821099 9.41639198,5.10263714 10.0314654,5.7252023 C10.6465388,6.34776746 10.919988,7.09169916 10.919988,7.95624812 C10.9716812,8.83877734 10.6465388,9.56547799 10.0314654,10.1880431 M37.0669763,22.2093198 C37.0669763,21.3447708 36.7762961,20.6008391 36.1784537,19.9438118 L18.6784537,2.26550792 C18.0641295,1.64369192 17.2085706,1.10653281 16.183698,0.657027259 C15.1243632,0.207521708 14.1841475,0 13.3293377,0 L3.14429126,0 C2.29023072,0 1.55528916,0.328139049 0.940215749,0.951453407 C0.325142335,1.57326941 0,2.31795027 0,3.18249923 L0,13.4574468 C0,14.3219958 0.205274191,15.3079113 0.649535511,16.3455199 C1.09379683,17.4183399 1.5890021,18.2484268 2.23853761,18.8709919 L19.7385376,36.5837579 C20.3528619,37.206323 21.0885526,37.482769 21.9426131,37.482769 C22.7974228,37.482769 23.5323644,37.189092 24.1818999,36.5837579 L36.1777045,24.4411148 C36.741834,23.8178004 37.0662272,23.0746179 37.0662272,22.2093198"></path>
                                        </g>
                                    </g>
                                </g>
                            </g>
                        </g>
                    </g>
                </g>
            </g>
        </g>
    </g>
</svg>