<?xml version="1.0" encoding="UTF-8"?>
<svg width="80px" height="80px" viewBox="0 0 80 80" version="1.1" xmlns="http://www.w3.org/2000/svg" xmlns:xlink="http://www.w3.org/1999/xlink">
    <!-- Generator: Sketch 63 (92445) - https://sketch.com -->
    <title>编组 24</title>
    <desc>Created with Sketch.</desc>
    <defs>
        <linearGradient x1="26.4114234%" y1="8.6802109%" x2="77.3710216%" y2="94.1966412%" id="linearGradient-1">
            <stop stop-color="#FF81A5" stop-opacity="0.1" offset="0%"></stop>
            <stop stop-color="#FF81A5" offset="100%"></stop>
        </linearGradient>
        <circle id="path-2" cx="40" cy="40" r="40"></circle>
        <linearGradient x1="50%" y1="1.74989443%" x2="50%" y2="100%" id="linearGradient-4">
            <stop stop-color="#FFA1BC" offset="0%"></stop>
            <stop stop-color="#FD5071" offset="100%"></stop>
        </linearGradient>
    </defs>
    <g id="视觉稿0610" stroke="none" stroke-width="1" fill="none" fill-rule="evenodd">
        <g id="客户分析0610" transform="translate(-1326.000000, -152.000000)">
            <g id="编组-5备份-2" transform="translate(62.000000, 120.000000)">
                <g id="编组-4备份-3" transform="translate(1032.000000, 0.000000)">
                    <g id="编组-24" transform="translate(232.000000, 32.000000)">
                        <g id="位图">
                            <mask id="mask-3" fill="white">
                                <use xlink:href="#path-2"></use>
                            </mask>
                            <use id="蒙版" fill="url(#linearGradient-1)" opacity="0.149999991" xlink:href="#path-2"></use>
                            <g id="编组" opacity="0.600000024" mask="url(#mask-3)" fill="url(#linearGradient-4)" fill-rule="nonzero">
                                <g transform="translate(20.000000, 20.000000)" id="形状">
                                    <path d="M30.0011537,18.3341197 C33.6669761,18.3426166 36.641425,21.3030973 36.6671771,24.968839 C36.668799,26.9950904 35.7532221,28.9131984 34.1767661,30.1861806 L33.9906809,30.330527 L34.1767661,30.4087871 C37.6115159,31.9026859 40.0010583,35.1791764 40.0010583,38.9704446 C40.0010583,39.5391348 39.5123673,40 38.9088948,40 L21.0934126,40 C20.4899401,40 20.0012491,39.5391348 20.0012491,38.9704446 C20.0012491,35.1478724 22.4325302,31.8470343 25.9142362,30.3705266 L26.0098875,30.330527 C24.3250358,29.0631275 23.3343076,27.077162 23.3351303,24.968839 C23.3608824,21.3030973 26.3353314,18.3426165 30.0011537,18.3341197 L30.0011537,18.3341197 Z M17.5369247,0.0247290796 C26.0411914,0.459507535 32.9159085,7.33422458 33.3106874,15.7984917 C33.3228612,16.0193591 33.3298177,16.2402266 33.3332958,16.4610941 C32.2716388,16.0454012 31.1412907,15.8330185 30.0011537,15.8350131 C24.9681583,15.8350131 20.8795016,19.9045395 20.8360238,24.9479697 L20.8395019,25.2314452 C20.8847189,26.7305613 21.2864542,28.1635911 21.9838389,29.4244487 L22.1438374,29.7027069 L22.1020986,29.7322718 C20.8895316,30.6737717 19.8667859,31.8369752 19.0882143,33.1600652 C18.0019099,33.3179078 16.9026651,33.3680059 15.8065065,33.3096291 C7.44484709,32.9218067 0.617086109,26.1723058 0.0414394323,17.8245593 L0.024048321,17.5358664 L0.00665714858,17.1306529 C-0.264644591,7.43335411 7.79266986,-0.483092117 17.5369247,0.0229899929 L17.5369247,0.0247290796 Z"></path>
                                </g>
                            </g>
                        </g>
                        <path d="M37.1385793,25.4174306 C36.6650705,25.4176466 36.211837,25.6096309 35.8822434,25.9495994 C35.5463012,26.2946974 35.3589956,26.757717 35.3605092,27.2393262 L35.3605092,35.1091642 L30.0304731,35.1091642 C29.5555161,35.1082495 29.1005649,35.3003233 28.7699634,35.641333 C28.4355472,35.9870992 28.2497721,36.4500386 28.2523755,36.9310599 C28.2722018,37.9245675 29.070458,38.7265023 30.0638641,38.7508686 L38.9187368,38.7508686 L38.9187368,27.2393262 C38.919142,26.7579314 38.7319988,26.2953135 38.397002,25.9495994 C38.0666289,25.609513 37.6127154,25.4174306 37.1385793,25.4174306 L37.1385793,25.4174306 Z" id="路径" fill="#FFFFFF" fill-rule="nonzero"></path>
                    </g>
                </g>
            </g>
        </g>
    </g>
</svg>