<?xml version="1.0" encoding="UTF-8"?>
<svg width="40px" height="40px" viewBox="0 0 40 40" version="1.1" xmlns="http://www.w3.org/2000/svg" xmlns:xlink="http://www.w3.org/1999/xlink">
    <title>编组 22</title>
    <defs>
        <polygon id="path-1" points="0.0004 0.95 35.9996396 0.95 35.9996396 36.9998 0.0004 36.9998"></polygon>
    </defs>
    <g id="页面-1" stroke="none" stroke-width="1" fill="none" fill-rule="evenodd">
        <g id="编组-22">
            <rect id="矩形" x="0" y="0" width="40" height="40"></rect>
            <g id="编组" transform="translate(2.000000, 1.000000)">
                <g transform="translate(0.000000, 0.050000)">
                    <mask id="mask-2" fill="white">
                        <use xlink:href="#path-1"></use>
                    </mask>
                    <g id="Clip-2"></g>
                    <path d="M33.1334,21.2128 L33.0334,21.2128 C32.6314,21.1618 32.3294,20.8108 32.3794,20.4078 C32.4304,19.9548 32.4304,19.4528 32.4304,18.9998 C32.4304,16.0338 31.5254,13.1678 29.8154,10.7038 C29.5644,10.4018 29.6134,9.8998 29.9154,9.6488 C30.2174,9.3968 30.7204,9.4468 30.9724,9.7488 C30.9724,9.7988 31.0224,9.7988 31.0224,9.8498 C32.8824,12.5148 33.9384,15.7328 33.9384,18.9998 C33.9384,19.5538 33.8884,20.0558 33.8374,20.6088 C33.8884,20.9108 33.5354,21.2128 33.1334,21.2128 M33.3344,23.4748 L33.3344,23.5258 C32.2294,27.1948 29.8654,30.3628 26.6484,32.4248 C26.5474,32.4748 26.3964,32.5258 26.2954,32.5258 C26.0444,32.5258 25.7934,32.3738 25.6424,32.1728 C25.3914,31.8208 25.4914,31.3688 25.8434,31.1168 C28.7594,29.2568 30.8714,26.3918 31.8764,23.0728 L31.8764,23.0228 C31.9774,22.6198 32.4304,22.4188 32.8324,22.5198 C33.2344,22.6198 33.4354,23.0728 33.3344,23.4748 M24.4354,30.2118 C22.5254,31.3178 20.3134,31.9218 17.9994,31.9218 C16.7424,31.9218 15.5354,31.7718 14.3294,31.4188 C13.9274,31.2688 13.7264,30.8158 13.8764,30.4638 C14.0284,30.1118 14.3794,29.9108 14.7324,30.0118 C17.7484,30.9158 20.9664,30.5138 23.6814,28.9548 C24.0334,28.7538 24.4864,28.8548 24.6874,29.2068 C24.8884,29.5588 24.7874,30.0118 24.4354,30.2118 M24.1844,33.8318 C24.1344,33.8318 24.1344,33.8318 24.0834,33.8828 C22.1224,34.5358 20.0614,34.9388 18.0504,34.9388 C16.4914,34.9388 14.9334,34.6878 13.4754,34.2848 L12.9724,34.1338 C12.5704,34.0328 12.3184,33.6318 12.4694,33.2298 C12.6194,32.8268 12.9724,32.5748 13.3744,32.7268 C13.4244,32.7268 13.4244,32.7268 13.4754,32.7758 L13.9774,32.9278 C17.0954,33.8828 20.5144,33.7318 23.5304,32.4748 C23.8824,32.2738 24.3344,32.4748 24.5354,32.8268 C24.7374,33.1788 24.5354,33.6318 24.1844,33.8318 M11.5644,30.2118 C8.4974,28.4518 6.2844,25.4858 5.4304,22.0668 C5.3294,21.6648 5.5814,21.2628 5.9834,21.1618 C6.3854,21.0618 6.7874,21.3138 6.8884,21.7148 C7.6424,24.7818 9.6034,27.3468 12.3184,28.9548 C12.6704,29.1558 12.8214,29.6088 12.6194,29.9608 C12.4694,30.1618 12.2174,30.3128 11.9164,30.3128 C11.7654,30.3128 11.6644,30.2628 11.5644,30.2118 M11.2624,32.5748 C11.0614,32.8268 10.8104,32.9778 10.5584,32.9778 C10.4074,32.9778 10.3074,32.9278 10.2064,32.8768 C6.8884,31.0168 4.3234,27.9998 3.0164,24.4308 C2.8654,24.0278 3.0164,23.6258 3.4194,23.4248 C3.8214,23.2238 4.2234,23.4248 4.4244,23.8268 C4.4244,23.8768 4.4244,23.8768 4.4744,23.9278 C5.6314,27.1948 7.9444,29.9108 10.9604,31.5698 C11.3134,31.7718 11.4634,32.2238 11.2624,32.5748 M2.2124,21.5138 C2.0614,20.6588 2.0114,19.8548 2.0114,18.9998 C2.0114,16.0338 2.8154,13.1678 4.3744,10.6538 C4.5754,10.3018 5.0284,10.1508 5.3804,10.3528 C5.7324,10.5538 5.8824,11.0058 5.6814,11.3578 L5.6314,11.4078 C4.2734,13.6708 3.5194,16.2848 3.5194,18.9498 C3.5194,19.7038 3.5704,20.5088 3.7204,21.2628 C3.7714,21.6648 3.5194,22.0668 3.1174,22.1168 L2.9664,22.1168 C2.6144,22.1168 2.2624,21.8658 2.2124,21.5138 M6.1844,8.1908 C8.7484,5.3748 12.2174,3.5648 15.9884,3.0618 C16.3914,3.0118 16.7934,3.3138 16.8434,3.7158 C16.8944,4.1168 16.5924,4.5198 16.1904,4.5698 C12.7714,5.0228 9.6034,6.6318 7.2904,9.1948 C7.1394,9.3968 6.9884,9.4468 6.7374,9.4468 C6.5364,9.4468 6.3854,9.3968 6.2344,9.2458 C5.9324,8.9438 5.8824,8.4918 6.1844,8.1908 M21.6704,6.5808 C22.0724,6.6818 22.2744,7.1348 22.1734,7.5358 C22.0724,7.9388 21.6194,8.1398 21.2684,8.0388 C18.2514,7.1848 15.0334,7.5358 12.3184,9.1458 L11.9164,9.1458 C11.6644,9.1458 11.4134,8.9948 11.2624,8.7938 C11.0614,8.4418 11.1614,7.9888 11.5144,7.7878 C14.5804,6.0278 18.2514,5.5748 21.6704,6.5808 M30.0674,16.7878 C30.0164,16.8378 29.9154,16.8378 29.8654,16.8378 C29.5144,16.8378 29.2124,16.5868 29.1614,16.2848 C28.4074,13.2178 26.4464,10.6538 23.7324,9.0448 C23.3794,8.8438 23.2294,8.3918 23.4304,8.0388 C23.6314,7.6878 24.0834,7.5358 24.4354,7.7368 L24.4864,7.7368 C27.5534,9.4968 29.7654,12.4638 30.6194,15.8828 C30.7204,16.2848 30.4694,16.6878 30.0674,16.7878 M25.9444,27.2458 C28.2064,25.0838 29.5144,22.0668 29.5144,18.9498 C29.5144,18.5478 29.8654,18.1948 30.2684,18.1948 C30.6704,18.1948 31.0224,18.5478 31.0224,18.9498 C31.0224,22.5198 29.5644,25.8888 26.9994,28.3528 C26.8494,28.5028 26.6484,28.5528 26.4464,28.5528 C26.0444,28.5528 25.6934,28.2008 25.6934,27.7988 C25.6934,27.5978 25.7934,27.3968 25.9444,27.2458 M6.5864,18.9998 C6.5864,19.4018 6.2844,19.7538 5.8324,19.7538 C5.4304,19.7538 5.0784,19.4018 5.0784,18.9998 C5.0784,15.4808 6.5364,12.0618 9.1004,9.6488 C9.4024,9.3468 9.8554,9.3968 10.1564,9.6488 C10.4574,9.9498 10.4074,10.4018 10.1064,10.7038 C7.8434,12.8658 6.5864,15.8328 6.5864,18.9998 M17.9994,9.4968 C23.2294,9.4968 27.5024,13.7208 27.5024,18.9498 C27.5024,24.1788 23.2794,28.4518 18.0504,28.4518 C12.7714,28.4518 8.5474,24.2298 8.5474,18.9998 C8.5474,13.7208 12.7714,9.4968 17.9994,9.4968 M18.2514,3.7158 C18.3014,3.3138 18.6544,2.9608 19.0554,3.0118 C20.2624,3.1118 21.4694,3.3138 22.6254,3.6648 C25.0894,4.4188 27.3014,5.7268 29.1614,7.5358 C29.4634,7.8378 29.4634,8.2908 29.1614,8.5928 C29.0114,8.6928 28.8604,8.7938 28.6584,8.7938 C28.4574,8.7938 28.3074,8.6928 28.1554,8.5928 C25.6934,6.1788 22.4244,4.7208 18.9554,4.5198 C18.5534,4.4698 18.2004,4.1168 18.2514,3.7158 M17.9994,0.9498 C8.0444,0.9498 0.0004,9.0448 0.0004,18.9498 C0.0004,28.8548 8.0444,36.9998 17.9994,36.9998 C27.9544,36.9998 35.9996396,28.9048 35.9996396,18.9998 C36.0504,8.9948 27.9544,0.9498 17.9994,0.9498" id="Fill-1" fill="#0D3DFB" mask="url(#mask-2)"></path>
                </g>
            </g>
        </g>
    </g>
</svg>