<?xml version="1.0" encoding="UTF-8"?>
<svg width="40px" height="40px" viewBox="0 0 40 40" version="1.1" xmlns="http://www.w3.org/2000/svg" xmlns:xlink="http://www.w3.org/1999/xlink">
    <title>编组 21</title>
    <defs>
        <polygon id="path-1" points="0.39 0.95 36.39 0.95 36.39 36.9998 0.39 36.9998"></polygon>
    </defs>
    <g id="页面-1" stroke="none" stroke-width="1" fill="none" fill-rule="evenodd">
        <g id="编组-21">
            <g id="编组" transform="translate(2.000000, 1.000000)">
                <mask id="mask-2" fill="white">
                    <use xlink:href="#path-1"></use>
                </mask>
                <g id="Clip-4"></g>
                <path d="M33.524,21.2128 L33.423,21.2128 C33.021,21.1618 32.719,20.8108 32.77,20.4078 C32.82,19.9548 32.82,19.4528 32.82,18.9998 C32.82,16.0338 31.916,13.1678 30.206,10.7038 C29.955,10.4018 30.004,9.8998 30.306,9.6488 C30.608,9.3968 31.111,9.4468 31.362,9.7488 C31.362,9.7988 31.413,9.7988 31.413,9.8498 C33.273,12.5148 34.329,15.7328 34.329,18.9998 C34.329,19.5538 34.278,20.0558 34.228,20.6088 C34.278,20.9108 33.926,21.2128 33.524,21.2128 M33.725,23.4748 L33.725,23.5258 C32.619,27.1948 30.256,30.3628 27.039,32.4248 C26.938,32.4748 26.787,32.5258 26.686,32.5258 C26.435,32.5258 26.183,32.3738 26.033,32.1728 C25.781,31.8208 25.881,31.3688 26.234,31.1168 C29.15,29.2568 31.261,26.3918 32.267,23.0728 L32.267,23.0228 C32.368,22.6198 32.82,22.4188 33.222,22.5198 C33.625,22.6198 33.826,23.0728 33.725,23.4748 M24.826,30.2118 C22.916,31.3178 20.703,31.9218 18.39,31.9218 C17.133,31.9218 15.926,31.7718 14.72,31.4188 C14.318,31.2688 14.117,30.8158 14.267,30.4638 C14.419,30.1118 14.77,29.9108 15.122,30.0118 C18.139,30.9158 21.357,30.5138 24.072,28.9548 C24.423,28.7538 24.877,28.8548 25.078,29.2068 C25.279,29.5588 25.178,30.0118 24.826,30.2118 M24.575,33.8318 C24.524,33.8318 24.524,33.8318 24.474,33.8828 C22.513,34.5358 20.452,34.9388 18.44,34.9388 C16.881,34.9388 15.323,34.6878 13.865,34.2848 L13.362,34.1338 C12.961,34.0328 12.709,33.6318 12.86,33.2298 C13.01,32.8268 13.362,32.5748 13.764,32.7268 C13.815,32.7268 13.815,32.7268 13.865,32.7758 L14.368,32.9278 C17.485,33.8828 20.904,33.7318 23.92,32.4748 C24.273,32.2738 24.725,32.4748 24.926,32.8268 C25.128,33.1788 24.926,33.6318 24.575,33.8318 M11.955,30.2118 C8.887,28.4518 6.675,25.4858 5.821,22.0668 C5.72,21.6648 5.971,21.2628 6.374,21.1618 C6.776,21.0618 7.178,21.3138 7.279,21.7148 C8.033,24.7818 9.994,27.3468 12.709,28.9548 C13.06,29.1558 13.212,29.6088 13.01,29.9608 C12.86,30.1618 12.608,30.3128 12.306,30.3128 C12.156,30.3128 12.055,30.2628 11.955,30.2118 M11.653,32.5748 C11.452,32.8268 11.201,32.9778 10.949,32.9778 C10.798,32.9778 10.698,32.9278 10.597,32.8768 C7.279,31.0168 4.714,27.9998 3.407,24.4308 C3.256,24.0278 3.407,23.6258 3.809,23.4248 C4.212,23.2238 4.614,23.4248 4.815,23.8268 C4.815,23.8768 4.815,23.8768 4.865,23.9278 C6.021,27.1948 8.335,29.9108 11.351,31.5698 C11.703,31.7718 11.854,32.2238 11.653,32.5748 M2.602,21.5138 C2.452,20.6588 2.402,19.8548 2.402,18.9998 C2.402,16.0338 3.206,13.1678 4.764,10.6538 C4.965,10.3018 5.419,10.1508 5.77,10.3528 C6.122,10.5538 6.273,11.0058 6.072,11.3578 L6.021,11.4078 C4.664,13.6708 3.91,16.2848 3.91,18.9498 C3.91,19.7038 3.961,20.5088 4.111,21.2628 C4.162,21.6648 3.91,22.0668 3.507,22.1168 L3.357,22.1168 C3.004,22.1168 2.653,21.8658 2.602,21.5138 M6.575,8.1908 C9.139,5.3748 12.608,3.5648 16.379,3.0618 C16.781,3.0118 17.183,3.3138 17.234,3.7158 C17.284,4.1168 16.982,4.5198 16.58,4.5698 C13.161,5.0228 9.994,6.6318 7.681,9.1948 C7.53,9.3968 7.379,9.4468 7.128,9.4468 C6.926,9.4468 6.776,9.3968 6.625,9.2458 C6.323,8.9438 6.273,8.4918 6.575,8.1908 M22.06,6.5808 C22.462,6.6818 22.664,7.1348 22.563,7.5358 C22.462,7.9388 22.01,8.1398 21.659,8.0388 C18.641,7.1848 15.423,7.5358 12.709,9.1458 L12.306,9.1458 C12.055,9.1458 11.803,8.9948 11.653,8.7938 C11.452,8.4418 11.552,7.9888 11.904,7.7878 C14.971,6.0278 18.641,5.5748 22.06,6.5808 M30.458,16.7878 C30.407,16.8378 30.306,16.8378 30.256,16.8378 C29.904,16.8378 29.602,16.5868 29.552,16.2848 C28.798,13.2178 26.837,10.6538 24.122,9.0448 C23.77,8.8438 23.619,8.3918 23.82,8.0388 C24.021,7.6878 24.474,7.5358 24.826,7.7368 L24.877,7.7368 C27.943,9.4968 30.156,12.4638 31.01,15.8828 C31.111,16.2848 30.859,16.6878 30.458,16.7878 M26.335,27.2458 C28.597,25.0838 29.904,22.0668 29.904,18.9498 C29.904,18.5478 30.256,18.1948 30.658,18.1948 C31.06,18.1948 31.413,18.5478 31.413,18.9498 C31.413,22.5198 29.955,25.8888 27.39,28.3528 C27.239,28.5028 27.039,28.5528 26.837,28.5528 C26.435,28.5528 26.083,28.2008 26.083,27.7988 C26.083,27.5978 26.183,27.3968 26.335,27.2458 M6.977,18.9998 C6.977,19.4018 6.675,19.7538 6.222,19.7538 C5.821,19.7538 5.468,19.4018 5.468,18.9998 C5.468,15.4808 6.926,12.0618 9.491,9.6488 C9.793,9.3468 10.245,9.3968 10.546,9.6488 C10.848,9.9498 10.798,10.4018 10.497,10.7038 C8.234,12.8658 6.977,15.8328 6.977,18.9998 M18.39,9.4968 C23.619,9.4968 27.893,13.7208 27.893,18.9498 C27.893,24.1788 23.67,28.4518 18.44,28.4518 C13.161,28.4518 8.938,24.2298 8.938,18.9998 C8.938,13.7208 13.161,9.4968 18.39,9.4968 M18.641,3.7158 C18.692,3.3138 19.044,2.9608 19.446,3.0118 C20.653,3.1118 21.859,3.3138 23.016,3.6648 C25.479,4.4188 27.692,5.7268 29.552,7.5358 C29.854,7.8378 29.854,8.2908 29.552,8.5928 C29.401,8.6928 29.251,8.7938 29.049,8.7938 C28.848,8.7938 28.698,8.6928 28.546,8.5928 C26.083,6.1788 22.815,4.7208 19.345,4.5198 C18.943,4.4698 18.591,4.1168 18.641,3.7158 M18.39,0.9498 C8.435,0.9498 0.39,9.0448 0.39,18.9498 C0.39,28.8548 8.435,36.9998 18.39,36.9998 C28.345,36.9998 36.3902304,28.9048 36.3902304,18.9998 C36.44,8.9948 28.345,0.9498 18.39,0.9498" id="Fill-3" fill="#FFFFFF" mask="url(#mask-2)"></path>
            </g>
            <rect id="矩形备份-7" x="0" y="0" width="40" height="40"></rect>
        </g>
    </g>
</svg>