<?xml version="1.0" encoding="UTF-8"?>
<svg width="80px" height="80px" viewBox="0 0 80 80" version="1.1" xmlns="http://www.w3.org/2000/svg" xmlns:xlink="http://www.w3.org/1999/xlink">
    <!-- Generator: Sketch 63 (92445) - https://sketch.com -->
    <title>位图</title>
    <desc>Created with Sketch.</desc>
    <defs>
        <linearGradient x1="26.4114234%" y1="8.6802109%" x2="77.3710216%" y2="94.1966412%" id="linearGradient-1">
            <stop stop-color="#A88EFF" stop-opacity="0.1" offset="0%"></stop>
            <stop stop-color="#A88EFF" offset="100%"></stop>
        </linearGradient>
        <linearGradient x1="50%" y1="0%" x2="50%" y2="100%" id="linearGradient-2">
            <stop stop-color="#C4B3FF" offset="0%"></stop>
            <stop stop-color="#6C41FA" offset="100%"></stop>
        </linearGradient>
    </defs>
    <g id="视觉稿0610" stroke="none" stroke-width="1" fill="none" fill-rule="evenodd">
        <g id="客户分析0610" transform="translate(-638.000000, -152.000000)">
            <g id="编组-5备份-2" transform="translate(62.000000, 120.000000)">
                <g id="编组-4备份" transform="translate(343.666667, 0.000000)">
                    <g id="位图" transform="translate(232.333333, 32.000000)">
                        <circle id="蒙版" fill="url(#linearGradient-1)" opacity="0.149999991" cx="40" cy="40" r="40"></circle>
                        <g id="编组-5" opacity="0.600000024" transform="translate(20.833333, 20.000000)">
                            <path d="M31.968032,2.96059473e-15 C34.174964,2.96059473e-15 35.964036,1.78907193 35.964036,3.99600399 L35.966034,24.1138861 C33.9758016,21.5517039 30.5774424,20.5372495 27.5083565,21.5891594 C24.4392706,22.6410693 22.3777026,25.5268794 22.3776224,28.7712288 L22.3876124,29.1708292 C22.4435564,30.2337662 22.7192807,31.2487512 23.1748252,32.1598401 L23.3386614,32.4715285 L23.0989011,32.5254745 C21.5595706,32.9157596 20.2831757,33.9884484 19.6337364,35.437617 C18.9842971,36.8867856 19.0331025,38.5533579 19.7662338,39.9620379 L3.99600399,39.9600399 C1.78907193,39.9600399 1.23160741e-13,38.170968 1.23160741e-13,35.9640359 L1.23160741e-13,3.99600399 C1.23160741e-13,1.78907193 1.78907193,2.96059473e-15 3.99600399,2.96059473e-15 L31.968032,2.96059473e-15 Z M29.97003,23.9760234 C32.2983727,23.9748771 34.2910711,25.6464595 34.6949163,27.9395121 C35.0987615,30.2325647 33.7970343,32.4843509 31.6083916,33.2787212 C31.5500024,33.978367 31.8012071,34.6684497 32.2957043,35.1668331 L35.5644356,35.1648352 C36.4210164,35.1648351 37.2125298,35.6218156 37.6408202,36.3636363 C38.0691107,37.1054571 38.0691107,38.019418 37.6408202,38.7612388 C37.2125298,39.5030595 36.4210164,39.9600399 35.5644356,39.9600399 L24.3756244,39.9600399 C23.0514652,39.9600399 21.978022,38.8865968 21.978022,37.5624375 C21.978022,36.2382783 23.0514652,35.1648352 24.3756244,35.1648352 L27.6443556,35.1668331 C28.1438562,34.6593407 28.3716283,34.027972 28.3356643,33.2787212 C26.1477311,32.4846079 24.8460352,30.2339576 25.2487943,27.9414802 C25.6515535,25.6490027 27.6424417,23.9768176 29.97003,23.9760234 Z" id="形状结合" fill="url(#linearGradient-2)" fill-rule="nonzero"></path>
                            <path d="M20.5794206,15.984016 C21.3518468,15.984016 21.978022,16.6101911 21.978022,17.3826174 C21.978022,18.1550436 21.3518468,18.7812188 20.5794206,18.7812188 L20.5794206,18.7812188 L7.3926074,18.7812188 C6.62018118,18.7812188 5.99400601,18.1550436 5.99400601,17.3826174 C5.99400601,16.6101911 6.62018118,15.984016 7.3926074,15.984016 L7.3926074,15.984016 Z M28.5714286,7.99200798 C29.3438548,7.99200798 29.9700299,8.61818317 29.9700299,9.39060938 C29.9700299,10.1630356 29.3438548,10.7892108 28.5714286,10.7892108 L28.5714286,10.7892108 L7.3926074,10.7892108 C6.6201812,10.7892108 5.99400607,10.1630356 5.99400607,9.39060938 C5.99400607,8.61818318 6.6201812,7.99200798 7.3926074,7.99200798 L7.3926074,7.99200798 Z" id="形状结合" fill="#FFFFFF"></path>
                        </g>
                    </g>
                </g>
            </g>
        </g>
    </g>
</svg>