<?xml version="1.0" encoding="UTF-8"?>
<svg width="13px" height="12px" viewBox="0 0 13 12" version="1.1" xmlns="http://www.w3.org/2000/svg" xmlns:xlink="http://www.w3.org/1999/xlink">
    <!-- Generator: Sketch 63.1 (92452) - https://sketch.com -->
    <title>编组</title>
    <desc>Created with Sketch.</desc>
    <g id="模版页面" stroke="none" stroke-width="1" fill="none" fill-rule="evenodd">
        <g id="5-客户画像-业务触点-收起" transform="translate(-294.000000, -146.000000)">
            <g id="营销动作备份-5" transform="translate(64.000000, 120.000000)">
                <g id="编组-15" transform="translate(216.000000, 16.000000)">
                    <g id="编组" transform="translate(13.000000, 9.000000)">
                        <polygon id="路径" points="0 0 14 0 14 14 0 14"></polygon>
                        <path d="M13.1694977,6.34367404 C13.4125814,6.1047575 13.5000915,5.80750087 13.4098033,5.53107999 C13.319515,5.2546591 13.0750423,5.0671374 12.7388923,5.01713161 L9.64964584,4.56430142 C9.53574377,4.54763283 9.34961112,4.41011691 9.29960533,4.30593819 L7.91750092,1.48338928 C7.7660945,1.17640931 7.51328747,1 7.22158704,1 C6.92988661,1 6.67569052,1.17640931 6.52706221,1.48338928 L5.1449578,4.30732724 C5.09495201,4.41150596 4.90743031,4.54902188 4.79491728,4.56569047 L1.70567084,5.01852066 C1.36952083,5.06852645 1.12504809,5.2546591 1.03475986,5.53246904 C0.944471631,5.80888992 1.03198176,6.1047575 1.27506545,6.34506309 L3.51004635,8.54253965 C3.59200028,8.62310453 3.66423086,8.84813057 3.64478417,8.96342169 L3.1169453,12.0665586 C3.05860521,12.4054867 3.16139489,12.6971872 3.39892238,12.8680403 C3.52115875,12.9569395 3.66284181,13 3.81285918,13 C3.95176414,13 4.09900341,12.9624957 4.24346457,12.8860979 L7.00628434,11.4206505 C7.10490687,11.3692557 7.33826721,11.3692557 7.43688974,11.4206505 L10.1997095,12.8847089 C10.5011333,13.0444496 10.8081133,13.0375043 11.0456407,12.8680403 C11.2817792,12.6971872 11.3845689,12.4054867 11.3276178,12.0665586 L10.799779,8.96203264 C10.7789432,8.84674152 10.8511738,8.62171548 10.9345168,8.5411506 L13.1694977,6.34367404 Z" id="路径" fill="#FFFFFF" fill-rule="nonzero"></path>
                    </g>
                </g>
            </g>
        </g>
    </g>
</svg>