<?xml version="1.0" encoding="UTF-8"?>
<svg width="18px" height="18px" viewBox="0 0 18 18" version="1.1" xmlns="http://www.w3.org/2000/svg" xmlns:xlink="http://www.w3.org/1999/xlink">
    <!-- Generator: Sketch 63.1 (92452) - https://sketch.com -->
    <title>编组 9</title>
    <desc>Created with Sketch.</desc>
    <defs>
        <linearGradient x1="50%" y1="0%" x2="50%" y2="100%" id="linearGradient-1">
            <stop stop-color="#86D4FF" offset="0%"></stop>
            <stop stop-color="#2592FF" offset="100%"></stop>
        </linearGradient>
    </defs>
    <g id="模版页面" stroke="none" stroke-width="1" fill="none" fill-rule="evenodd">
        <g id="1-客户画像-搜索页" transform="translate(-99.000000, -459.000000)">
            <g id="编组-4" transform="translate(64.000000, 296.000000)">
                <g id="编组-5备份-2" transform="translate(16.000000, 152.000000)">
                    <g id="编组-9" transform="translate(19.000000, 11.000000)">
                        <circle id="椭圆形" fill="#E6F6FF" cx="9" cy="9" r="9"></circle>
                        <g id="编组" transform="translate(4.000000, 5.000000)">
                            <g id="编组-6" transform="translate(1.000000, 0.000000)">
                                <path d="M3.9806552,8.69292804 C5.95162923,8.69292804 7.57279674,6.11480075 7.57279674,3.29292804 L0.372796744,3.29292804 C0.372796744,6.11480075 2.00968116,8.69292804 3.9806552,8.69292804 Z" id="路径" fill="#FFFFFF"></path>
                                <path d="M0.111931812,4.67021713 C-0.435718966,2.4049344 1.10000105,0.52070935 3.11060701,0.10901385 C4.77845255,-0.231831744 6.22225914,0.22007589 7.32330526,1.55665016 C8.07010177,2.47003973 8.25009888,3.53278861 7.98393295,4.67596172 C7.66415086,4.72766301 7.37117683,4.74106706 7.09160688,4.48447543 C6.73855729,4.17325098 6.41072775,3.83453648 6.1111971,3.47151299 C5.91971081,3.24747405 5.90439191,3.23981459 5.70907589,3.45044951 C5.2381264,3.9240583 4.68456931,4.30758965 4.07569789,4.58213345 C3.32322386,4.9439492 2.51051718,5.16400316 1.67828962,5.23127196 C1.25256936,5.27460879 0.822522366,5.22428413 0.41830986,5.0838275 C0.22490872,5.02638162 0.056400783,4.92106415 0.111931812,4.67021713 L0.111931812,4.67021713 Z" id="路径" fill="url(#linearGradient-1)" fill-rule="nonzero"></path>
                            </g>
                        </g>
                    </g>
                </g>
            </g>
        </g>
    </g>
</svg>