<?xml version="1.0" encoding="UTF-8"?>
<svg width="244px" height="244px" viewBox="0 0 244 244" version="1.1" xmlns="http://www.w3.org/2000/svg" xmlns:xlink="http://www.w3.org/1999/xlink">
    <!-- Generator: Sketch 63.1 (92452) - https://sketch.com -->
    <title>编组 16</title>
    <desc>Created with Sketch.</desc>
    <defs>
        <linearGradient x1="50%" y1="8.59067758%" x2="50%" y2="96.1364839%" id="linearGradient-1">
            <stop stop-color="#80F7FF" offset="0%"></stop>
            <stop stop-color="#00A7FF" offset="100%"></stop>
        </linearGradient>
        <linearGradient x1="50%" y1="0%" x2="50%" y2="100%" id="linearGradient-2">
            <stop stop-color="#86D4FF" offset="0%"></stop>
            <stop stop-color="#2592FF" offset="100%"></stop>
        </linearGradient>
        <linearGradient x1="50%" y1="8.59067758%" x2="50%" y2="96.1364839%" id="linearGradient-3">
            <stop stop-color="#85E1FF" offset="0%"></stop>
            <stop stop-color="#00A7FF" offset="100%"></stop>
        </linearGradient>
    </defs>
    <g id="模版页面" stroke="none" stroke-width="1" fill="none" fill-rule="evenodd">
        <g id="3-客户画像-标签描摹-云图-男" transform="translate(-788.000000, -370.000000)">
            <g id="编组-16" transform="translate(790.000000, 372.000000)">
                <g id="编组-9">
                    <circle id="椭圆形" fill="url(#linearGradient-1)" fill-rule="nonzero" opacity="0.24" cx="120" cy="120" r="112.238488"></circle>
                    <circle id="椭圆形" stroke="url(#linearGradient-2)" stroke-width="4" opacity="0.0799999982" cx="120" cy="120" r="120"></circle>
                    <circle id="椭圆形" fill="url(#linearGradient-3)" fill-rule="nonzero" cx="119.552835" cy="119.552835" r="101.953686"></circle>
                </g>
                <path d="M119.953686,18 C176.261153,18 221.907373,63.6462202 221.907373,119.953686 C221.907373,146.294464 211.918188,170.302143 195.521356,188.395186 C194.469841,176.679614 186.191572,166.685237 174.666239,163.600309 L154.461073,158.192235 L151.843704,157.493114 L149.298558,156.811327 L141.978013,154.849744 L141.978013,142.704689 C146.608965,137.053944 150.459907,129.331838 153.429725,119.627927 C156.188652,119.318812 158.72802,118.059239 160.478711,116.071656 C163.023857,113.179839 164.82366,108.719333 165.473669,105.581956 C166.502127,100.647666 165.629671,96.7620574 163.018079,94.6473617 C161.793174,93.6564592 160.192707,93.0526731 158.369793,92.8360035 C162.786965,84.6285574 163.41964,73.9973003 159.785368,65.3680706 C156.728882,58.1197488 148.625437,52.1483335 140.651994,53.5696863 C137.358616,47.9767206 130.624523,44.0044438 122.159963,42.7737602 C103.849933,40.1101681 90.3210807,44.3077813 80.80495,55.6092699 C80.0596065,56.4903931 80.0047168,57.7644106 80.6662815,58.7119792 C81.330735,59.6566588 82.546974,60.0408863 83.6332111,59.6393253 C84.3987772,59.3590992 85.054564,59.2550978 85.6641279,59.2782092 C80.31961,64.1980545 76.0151064,70.207026 73.0886218,76.8688953 C72.6726161,77.8135749 72.8690632,78.9142567 73.5855175,79.6596003 C74.2990829,80.4020549 75.3939868,80.6389471 76.356,80.2633863 L77.3382357,79.8762699 C76.7344497,84.9203392 78.219359,90.9581999 78.9011461,93.3704553 C78.0489122,93.6853485 77.2804572,94.110021 76.6188925,94.6473617 C74.0044122,96.7649463 73.1319557,100.647666 74.1604143,105.581956 C74.8133122,108.722222 76.6131147,113.182727 79.1582607,116.071656 C80.9060625,118.059239 83.4483197,119.318812 86.2072465,119.627927 C89.177065,129.331838 93.0280068,137.053944 97.6560704,142.7018 L97.6560704,154.852633 L90.2979693,156.819994 L87.7528232,157.501781 L85.1383429,158.200901 L64.9707325,163.600309 C53.5360341,166.660977 45.2950532,176.522851 44.1393419,188.117277 C27.888264,170.058918 18,146.161066 18,119.953686 C18,63.6462202 63.6462202,18 119.953686,18 Z M140.250433,160.460044 L143.488922,161.112941 L146.97297,161.81784 L149.382336,162.306069 L149.232112,162.65274 L138.375519,187.62175 L123.722873,176.692933 L123.722873,176.690044 L140.250433,160.460044 Z M99.3836497,160.460044 L115.91121,176.690044 L101.258564,187.62175 L90.4019707,162.65274 L90.2517465,162.306069 L92.6206679,161.826507 L96.1538275,161.112941 L99.3836497,160.460044 Z M136.881943,147.82387 L136.881943,156.623546 L136.318601,157.175332 L135.171697,158.304903 L119.817041,173.38511 L103.315481,157.178221 L102.75214,156.626435 L102.75214,147.82387 C102.939921,147.976983 103.127701,148.130096 103.315481,148.277432 C105.164396,149.71034 107.105756,150.880356 109.136673,151.778813 C110.549359,152.399933 112.005379,152.885273 113.504733,153.246389 C115.53276,153.737507 117.638789,153.991732 119.817041,153.991732 C121.998183,153.991732 124.101323,153.737507 126.132239,153.246389 C127.628704,152.885273 129.087613,152.399933 130.49741,151.778813 C132.531216,150.880356 134.472576,149.71034 136.318601,148.277432 C136.509271,148.130096 136.697051,147.976983 136.881943,147.82387 Z M128.980723,76.5626688 L129.367839,82.6554192 C129.437174,83.7445453 130.194073,84.6661135 131.245643,84.9521174 C132.297213,85.2381213 133.415228,84.8192267 134.024792,83.9149921 L138.589299,77.1288988 C141.787343,81.0029521 148.218098,89.7564056 151.401698,94.2082446 C151.809036,94.7744746 152.167264,95.2800371 152.453268,95.687376 C152.612159,95.9127124 152.811495,96.0976038 153.028164,96.2564949 C153.169722,96.6349446 153.38928,96.9787271 153.695507,97.2560642 C154.241514,97.750071 154.972413,97.9840742 155.706201,97.8974064 C157.468448,97.6865146 158.99958,97.952296 159.811369,98.6051939 C160.834049,99.4372053 161.088275,101.655902 160.487378,104.544831 C159.886481,107.43376 158.274459,110.865807 156.65377,112.706054 C155.506865,114.008961 153.649284,114.716749 151.670368,114.592525 C150.468574,114.508746 149.393892,115.282979 149.064554,116.429883 C147.244529,122.74797 144.644494,129.580286 140.98711,135.34081 C140.487325,136.126598 139.970207,136.892164 139.429978,137.63173 C138.626855,138.73819 137.780399,139.792649 136.881943,140.777773 C136.697051,140.982887 136.509271,141.188001 136.318601,141.387337 C131.98232,145.917177 126.568468,148.895662 119.817041,148.895662 C113.068504,148.895662 107.651763,145.917177 103.315481,141.387337 C103.124812,141.188001 102.939921,140.982887 102.75214,140.777773 C101.856573,139.792649 101.007228,138.73819 100.204105,137.63173 C99.6667647,136.892164 99.1467575,136.126598 98.6498618,135.34081 C94.9924782,129.580286 92.3924425,122.74797 90.5724175,116.429883 C90.2546354,115.33209 89.2521772,114.586747 88.125495,114.586747 C88.0706054,114.586747 88.0186047,114.586747 87.963715,114.592525 C86.0021325,114.722526 84.1301068,114.008961 82.9832022,112.706054 C81.3625132,110.865807 79.7504911,107.43376 79.149594,104.544831 C78.5486968,101.655902 78.8000336,99.4372053 79.8256032,98.6051939 C80.3947222,98.1458542 81.3249572,97.8829617 82.4371947,97.8367389 C82.4805286,97.8627392 82.5238625,97.8887396 82.5700854,97.911851 C82.9225347,98.0880756 83.31254,98.1834103 83.7054343,98.1834103 C83.9163261,98.1834103 84.1272179,98.1574099 84.3352207,98.1025203 C87.0565915,97.4091774 100.802114,93.8182392 104.303495,91.3684278 C110.832474,86.8068096 115.053198,83.3660956 117.783236,80.763171 L117.783236,80.8469499 C117.79768,81.8060742 118.352355,82.6756417 119.213255,83.0974253 C120.077045,83.5192088 121.102615,83.4209853 121.868181,82.8403106 C124.395993,80.9307288 126.773581,78.8304778 128.980723,76.5626688 Z" id="形状结合" fill="#FFFFFF" fill-rule="nonzero"></path>
            </g>
        </g>
    </g>
</svg>