<?xml version="1.0" encoding="UTF-8"?>
<svg width="30px" height="30px" viewBox="0 0 30 30" version="1.1" xmlns="http://www.w3.org/2000/svg" xmlns:xlink="http://www.w3.org/1999/xlink">
    <!-- Generator: Sketch 63.1 (92452) - https://sketch.com -->
    <title>编组</title>
    <desc>Created with Sketch.</desc>
    <defs>
        <linearGradient x1="36.7599287%" y1="8.70218741%" x2="79.3206124%" y2="84.4772078%" id="linearGradient-1">
            <stop stop-color="#FFE800" offset="0%"></stop>
            <stop stop-color="#FF924A" offset="100%"></stop>
        </linearGradient>
        <linearGradient x1="25.7899728%" y1="6.32397807%" x2="79.4450548%" y2="93.7129377%" id="linearGradient-2">
            <stop stop-color="#849AFF" offset="0.0211148649%"></stop>
            <stop stop-color="#3F5FF4" offset="100%"></stop>
        </linearGradient>
    </defs>
    <g id="模版页面" stroke="none" stroke-width="1" fill="none" fill-rule="evenodd">
        <g id="1-客户画像-搜索页" transform="translate(-662.000000, -108.000000)" fill-rule="nonzero">
            <g id="编组" transform="translate(662.000000, 108.000000)">
                <path d="M12.1875,13.125 C12.1875,11.5732759 13.4482759,10.3125 15,10.3125 C16.5517241,10.3125 17.8125,11.5732759 17.8125,13.125 C17.8125,14.6767241 16.5517241,15.9375 15,15.9375 C13.4482759,15.9375 12.2117457,14.6767241 12.1875,13.125 L12.1875,13.125 Z" id="路径" fill="url(#linearGradient-1)"></path>
                <path d="M3.2625,18.3375 C3.09375,17.8125 2.55,17.53125 2.025,17.7 C1.5375,17.85 1.25625,18.375 1.36875,18.8625 C2.68125,23.5125 6.39375,27.2625 11.025,28.6125 C11.55,28.7625 12.09375,28.44375 12.225,27.91875 C12.375,27.43125 12.09375,26.90625 11.5875,26.7375 C7.59375,25.55625 4.40625,22.35 3.2625,18.3375 Z M26.775,18.43125 C25.55625,22.55625 22.275,25.725 18.1125,26.83125 C17.5875,26.98125 17.2875,27.525 17.41875,28.03125 C17.56875,28.5375 18.075,28.85625 18.6,28.725 C23.4,27.4875 27.2625,23.7375 28.65,18.975 C28.81875,18.4875 28.51875,17.94375 27.99375,17.775 C27.46875,17.625 26.925,17.925 26.775,18.43125 Z M18.6375,3.3 C22.725,4.575 25.85625,7.875 26.90625,12.01875 C27.01875,12.54375 27.54375,12.88125 28.0875,12.76875 C28.6125,12.65625 28.95,12.13125 28.8375,11.5875 C28.8375,11.56875 28.8375,11.55 28.81875,11.55 C27.61875,6.75 23.94375,2.86875 19.21875,1.425 C18.7125,1.275 18.15,1.55625 17.98125,2.08125 C17.8125,2.60625 18.1125,3.15 18.6375,3.3 Z M1.89375,13.29375 C2.41875,13.40625 2.94375,13.06875 3.05625,12.525 C3.9375,8.15625 7.1625,4.6125 11.4375,3.3 C11.9625,3.13125 12.24375,2.5875 12.09375,2.0625 C11.94375,1.5375 11.38125,1.25625 10.85625,1.40625 C5.8875,2.94375 2.15625,7.05 1.125,12.13125 C1.0125,12.675 1.35,13.18125 1.89375,13.29375 Z M29.025,14.025 L23.6625,14.025 C23.19375,10.0125 20.025,6.84375 16.0125,6.375 L16.0125,0.975 C16.0125,0.43125 15.58125,0 15.0375,0 C14.49375,0 14.0625,0.43125 14.0625,0.975 L14.0625,6.375 C10.05,6.84375 6.88125,10.0125 6.4125,14.025 L0.975,14.025 C0.43125,14.025 0,14.45625 0,15 C0,15.54375 0.43125,15.975 0.975,15.975 L6.39375,15.975 C6.8625,19.9875 10.03125,23.15625 14.04375,23.625 L14.04375,29.00625 C14.04375,29.55 14.475,29.98125 15.01875,29.98125 C15.5625,29.98125 15.99375,29.55 15.99375,29.00625 L15.99375,23.625 C20.00625,23.15625 23.175,19.9875 23.64375,15.975 L29.00625,15.975 C29.55,15.975 29.98125,15.54375 29.98125,15 C29.98125,14.45625 29.56875,14.025 29.025,14.025 Z M9.8625,19.275 C9.8625,19.275 9.8625,16.95 12.6375,16.03125 C11.8125,15.35625 11.2875,14.3625 11.2875,13.21875 C11.2875,11.19375 12.91875,9.5625 14.94375,9.5625 C16.96875,9.5625 18.6,11.19375 18.6,13.21875 C18.6,14.2875 18.13125,15.28125 17.325,15.975 C18.7125,16.6125 19.78125,17.8125 20.25,19.25625 L9.8625,19.275 Z" id="形状" fill="url(#linearGradient-1)"></path>
                <path d="M9.8625,19.275 C9.8625,19.275 9.8625,16.95 12.6375,16.03125 C11.8125,15.35625 11.2875,14.3625 11.2875,13.21875 C11.2875,11.19375 12.91875,9.5625 14.94375,9.5625 C16.96875,9.5625 18.6,11.19375 18.6,13.21875 C18.6,14.2875 18.13125,15.28125 17.325,15.975 C18.7125,16.6125 19.78125,17.8125 20.25,19.25625 L9.8625,19.275 Z" id="路径" fill="url(#linearGradient-2)"></path>
            </g>
        </g>
    </g>
</svg>