<?xml version="1.0" encoding="UTF-8"?>
<svg width="244px" height="244px" viewBox="0 0 244 244" version="1.1" xmlns="http://www.w3.org/2000/svg" xmlns:xlink="http://www.w3.org/1999/xlink">
    <!-- Generator: Sketch 63.1 (92452) - https://sketch.com -->
    <title>编组 16</title>
    <desc>Created with Sketch.</desc>
    <defs>
        <linearGradient x1="50%" y1="1.74989443%" x2="50%" y2="100%" id="linearGradient-1">
            <stop stop-color="#FFA1BC" offset="0%"></stop>
            <stop stop-color="#FD5071" offset="100%"></stop>
        </linearGradient>
    </defs>
    <g id="模版页面" stroke="none" stroke-width="1" fill="none" fill-rule="evenodd">
        <g id="2-客户画像-标签描摹-云图-女" transform="translate(-788.000000, -370.000000)">
            <g id="编组-16" transform="translate(790.000000, 372.000000)">
                <g id="编组-9">
                    <circle id="椭圆形" fill="url(#linearGradient-1)" fill-rule="nonzero" opacity="0.239257812" cx="120" cy="120" r="112.238488"></circle>
                    <circle id="椭圆形" stroke="url(#linearGradient-1)" stroke-width="4" opacity="0.0799999982" cx="120" cy="120" r="120"></circle>
                    <circle id="椭圆形" fill="url(#linearGradient-1)" fill-rule="nonzero" cx="119.552835" cy="119.552835" r="101.953686"></circle>
                </g>
                <path d="M119.492148,17.5384615 C175.799614,17.5384615 221.445834,63.1846818 221.445834,119.492148 C221.445834,152.124321 206.115034,181.175793 182.263032,199.836966 C181.942079,198.153542 181.535813,196.500545 181.050946,194.881549 C180.651957,193.534644 180.189577,192.21767 179.678721,190.919402 C179.149222,189.572497 178.567518,188.251781 177.926152,186.960997 C174.443386,179.953347 169.379579,173.869824 163.19711,169.19681 C162.085906,168.354994 160.937414,167.569299 159.759091,166.82476 C158.618056,166.102669 157.447191,165.425475 156.246494,164.796919 C152.931527,163.057166 149.407744,161.672847 145.712432,160.711306 C145.980911,160.643961 146.245661,160.576615 146.510411,160.50927 C146.596175,160.486822 146.685668,160.464373 146.775161,160.441925 C147.666361,160.209958 148.542646,159.966766 149.400286,159.712351 L149.575543,159.659971 L149.575543,159.659971 C153.487129,158.481429 157.048201,157.063437 160.255031,155.484564 C163.096431,154.085279 165.661894,152.566269 167.984981,150.991138 C173.179299,147.474218 177.120716,143.691659 179.999404,140.369292 C181.159083,139.029869 182.147234,137.772757 182.978773,136.631629 L182.978773,136.627888 C183.896075,135.367035 184.619476,134.259579 185.163891,133.369125 C185.320504,133.103485 185.46593,132.860294 185.59644,132.639551 C185.611356,132.613361 185.626271,132.58343 185.641187,132.55724 C185.734409,132.400101 185.812715,132.257928 185.887292,132.123237 C185.917123,132.074599 185.943225,132.018478 185.969327,131.973581 C186.032718,131.861339 186.088651,131.760321 186.137127,131.666786 C186.166958,131.610665 186.19306,131.558285 186.219162,131.513388 L186.316112,131.318835 L186.316112,131.318835 C186.345943,131.262714 186.368317,131.217817 186.386961,131.176662 C186.401877,131.154214 186.416792,131.120541 186.427979,131.101834 C186.446623,131.060679 186.461538,131.027006 186.461538,131.027006 C185.585254,131.027006 184.731342,130.98585 183.892346,130.918505 C183.605223,130.892315 183.336744,130.847418 183.05335,130.813746 C182.508935,130.753883 181.96452,130.694021 181.438749,130.604227 C181.110608,130.548106 180.801112,130.469537 180.480429,130.402191 C180.021778,130.304915 179.559398,130.215121 179.115662,130.095396 C178.776335,130.009344 178.455652,129.897102 178.127511,129.796084 C177.721064,129.672618 177.314617,129.549151 176.923086,129.406978 C176.587487,129.283512 176.266804,129.14508 175.942392,129.010389 C175.580692,128.860733 175.218991,128.711077 174.868477,128.546455 C174.544066,128.389316 174.227112,128.220953 173.913886,128.05259 C173.589475,127.876744 173.268792,127.70838 172.959295,127.52131 C172.642341,127.33424 172.340303,127.132204 172.038264,126.930168 C171.75487,126.743098 171.471476,126.552287 171.199268,126.350251 C170.897229,126.125767 170.606377,125.897541 170.319254,125.658091 C170.073149,125.456055 169.830772,125.250278 169.592124,125.037018 C169.30873,124.782602 169.032794,124.520704 168.764315,124.251323 C168.555498,124.038063 168.346681,123.821062 168.145322,123.600319 C167.880573,123.308489 167.62328,123.012918 167.377175,122.709865 C167.201918,122.492863 167.03039,122.27212 166.86632,122.047636 C166.620214,121.722134 166.381566,121.389149 166.157834,121.048681 C166.016137,120.835421 165.881897,120.614678 165.751387,120.390194 C165.531384,120.027278 165.315109,119.664362 165.117479,119.28648 C165.009342,119.076961 164.908662,118.85996 164.807983,118.642958 C164.733405,118.493302 164.655099,118.347387 164.587979,118.19399 C164.472384,117.939574 164.364247,117.685159 164.259838,117.423261 C164.181532,117.224966 164.110684,117.02293 164.039835,116.820895 C163.875765,116.379409 163.719152,115.934182 163.584913,115.477731 L163.450673,114.950193 L163.450673,114.950193 C163.320163,114.456327 163.19711,113.962462 163.103888,113.453631 C163.077786,113.330165 163.0666,113.202957 163.044226,113.079491 C163.006938,112.840041 162.973378,112.604332 162.939818,112.364882 C162.943547,112.361141 162.947276,112.361141 162.947276,112.3574 C166.523263,109.936711 168.883639,105.839874 168.883639,101.19305 C168.883639,99.1652088 168.428717,97.2421271 167.62328,95.5135984 C166.679876,93.4894988 165.255447,91.7385217 163.487962,90.4140646 L163.713904,90.231983 C163.75064,90.2008046 163.786272,90.1683791 163.819832,90.1334593 C164.561877,89.3627301 164.964595,88.3188783 164.927306,87.2488368 C164.252381,67.1238242 150.74268,50.6017838 132.381717,45.3937494 C128.485047,44.0954822 124.327355,43.3846154 120.001864,43.3846154 C115.676374,43.3846154 111.518682,44.0954822 107.622012,45.3937494 C89.261049,50.6017838 75.7513482,67.1238242 75.0764224,87.2488368 C75.0391337,88.3188783 75.438123,89.3627301 76.1838972,90.1334593 C76.2845768,90.2382186 76.4039006,90.3205295 76.5120379,90.4140646 C74.6438734,91.8208326 73.1411382,93.6990174 72.2051915,95.880256 C71.5078926,97.5115082 71.1163611,99.3073821 71.1163611,101.19305 C71.1163611,105.761304 73.3984303,109.802021 76.8737384,112.241416 C76.8774673,112.245157 76.884925,112.245157 76.8886539,112.248899 C76.8513652,112.536987 76.8103476,112.821334 76.7618723,113.10568 C76.7506857,113.176767 76.7432279,113.251595 76.7320413,113.322682 C76.6313618,113.891375 76.5008513,114.452586 76.3554253,115.006314 C76.3255943,115.122297 76.2994922,115.238281 76.2696613,115.350523 C76.1242353,115.866837 75.9564361,116.371926 75.7737214,116.873274 C75.7215172,117.019189 75.6730419,117.165104 75.6171088,117.307277 C75.5760912,117.415778 75.5425314,117.531761 75.4977849,117.640262 C75.3523589,117.995695 75.1845597,118.339905 75.0204894,118.684114 C74.9421831,118.848736 74.8638768,119.017099 74.7818416,119.177979 C74.5692959,119.600758 74.334377,120.012312 74.0920004,120.416384 C73.9838631,120.599713 73.8757259,120.7793 73.7638597,120.955146 C73.5214831,121.333028 73.264191,121.703427 72.9994411,122.062602 C72.857744,122.253413 72.7160469,122.440484 72.566892,122.627554 C72.3021422,122.96428 72.0262057,123.289782 71.7353537,123.611543 C71.5600968,123.802355 71.3811109,123.993166 71.1983962,124.180236 C70.9112731,124.475807 70.6204212,124.763895 70.3109249,125.040759 C70.1021081,125.235312 69.8821047,125.418641 69.6621012,125.605711 C69.3563338,125.860127 69.0505663,126.110801 68.7298834,126.346509 C68.480049,126.53358 68.219028,126.713167 67.958007,126.889013 C67.641053,127.106014 67.32037,127.319274 66.9885005,127.52131 C66.6976485,127.693415 66.3956099,127.858037 66.0935714,128.018917 C65.7654307,128.198504 65.4410189,128.378092 65.0979627,128.542714 C64.7660932,128.703594 64.4155793,128.842026 64.0725231,128.987941 C63.7369247,129.130114 63.4050551,129.276029 63.061999,129.403237 C62.6816541,129.54541 62.2826648,129.661393 61.8911334,129.78486 L61.2204889,129.996595 C61.1080704,130.030961 60.9949613,130.064218 60.8806092,130.095396 C60.4443313,130.21138 59.989409,130.301173 59.5382155,130.394709 L58.8916016,130.539099 C58.7829119,130.56224 58.6731174,130.584273 58.5612512,130.604227 C58.0392093,130.694021 57.4985229,130.750142 56.9578366,130.813746 C56.6744423,130.843677 56.4022347,130.892315 56.1151116,130.918505 C55.2761156,130.98585 54.4184752,131.027006 53.5384615,131.027006 C53.5384615,131.027006 53.5571059,131.060679 53.5757503,131.101834 C53.5869369,131.120541 53.6018524,131.154214 53.6167678,131.180403 C53.6354122,131.217817 53.6577854,131.266456 53.6838875,131.318835 C53.7037748,131.356249 53.7269767,131.400315 53.7512834,131.446597 L53.7882959,131.51713 C53.8106691,131.562027 53.8367712,131.610665 53.8666022,131.663045 C53.9150775,131.75658 53.9710106,131.861339 54.0344014,131.977323 C54.0605035,132.022219 54.0866056,132.074599 54.1164366,132.123237 C54.191014,132.257928 54.2730492,132.403843 54.3625421,132.564723 C54.3774576,132.58343 54.3886442,132.605878 54.4035597,132.628327 C54.5825455,132.942605 54.7950912,133.298038 55.0411967,133.690886 C56.1971468,135.557846 58.0615825,138.244174 60.7799297,141.256005 C63.3043756,144.054575 66.5596803,147.122526 70.653981,150.055787 C73.088934,151.799281 75.8445699,153.490396 78.8985156,155.050561 C82.3775525,156.823987 86.2704942,158.421567 90.6109005,159.716092 C90.6183582,159.716092 90.625816,159.719834 90.6295448,159.719834 C91.5207451,159.985473 92.4305897,160.236147 93.3590787,160.475597 C93.4187406,160.490563 93.4821314,160.505529 93.5417934,160.520494 C93.8289164,160.595322 94.1123107,160.67015 94.3994338,160.737496 C90.4841188,161.766382 86.7515186,163.259202 83.2650239,165.156094 C82.0680562,165.807098 80.9046484,166.517965 79.7710715,167.262504 C78.5890193,168.036975 77.4442557,168.860084 76.336781,169.72809 C70.4638086,174.330017 65.6386491,180.215245 62.2863937,186.960997 C61.6450278,188.251781 61.0633239,189.572497 60.5300953,190.919402 C60.0229688,192.21767 59.5605888,193.534644 59.1578707,194.881549 C58.5952473,196.765326 58.1383984,198.695135 57.796016,200.664104 C33.3309938,182.043472 17.5384615,152.612082 17.5384615,119.492148 C17.5384615,63.1846818 63.1846818,17.5384615 119.492148,17.5384615 Z M134.769231,151.384615 L134.769231,164.986801 C134.769231,165.79002 134.685108,166.574473 134.551277,167.343912 C133.404152,173.991117 127.511755,179.076923 120.414877,179.076923 L119.588947,179.076923 C112.492069,179.076923 106.595848,173.991117 105.448723,167.343912 C105.318715,166.574473 105.230769,165.79002 105.230769,164.986801 L105.230769,151.467189 C108.213294,152.611965 111.360239,153.415184 114.633368,153.835561 C116.357879,154.057009 118.109156,154.18087 119.894847,154.18087 C121.688185,154.18087 123.450934,154.053256 125.183092,153.831808 C128.525049,153.400171 131.736998,152.570678 134.769231,151.384615 Z M152.039914,91.3846154 L152.039914,91.7199926 C152.039914,93.8999447 153.807346,95.6662649 155.993282,95.6662649 C156.695771,95.6662649 157.360894,95.8078686 157.981177,96.0500855 C159.61409,96.6798495 160.862129,98.0548962 161.325473,99.7578673 C161.448782,100.219943 161.538462,100.693197 161.538462,101.196263 C161.538462,103.540177 160.062487,105.537535 157.98865,106.338714 C157.368367,106.580931 156.699508,106.726261 155.993282,106.726261 C155.473889,106.726261 154.984389,106.830601 154.532255,107.013195 C153.071227,107.590789 152.039914,109.006826 152.039914,110.668807 L152.039914,114.35423 C152.039914,122.969699 148.546152,130.787715 142.907557,136.477949 C141.685674,137.711392 140.362902,138.836769 138.950451,139.857807 C137.698675,140.763325 136.37964,141.57941 134.997082,142.294881 C132.097447,143.804079 128.936246,144.87356 125.595687,145.421343 C123.925407,145.697097 122.210288,145.846154 120.461538,145.846154 C118.727736,145.846154 117.0313,145.700824 115.375967,145.428795 C112.09893,144.899645 108.990043,143.859975 106.13151,142.402947 C104.752689,141.698655 103.433654,140.897476 102.178141,140.006863 C100.773163,139.004458 99.4466549,137.897713 98.2247724,136.686629 C92.4591313,130.977763 88.8831634,123.074039 88.8831634,114.35423 L88.8831634,110.668807 C88.8831634,108.827959 87.6127046,107.292676 85.9013218,106.860412 C85.5874438,106.782157 85.2660924,106.726261 84.9297945,106.726261 C84.1899391,106.726261 83.4874501,106.573478 82.8410107,106.312629 C80.8194865,105.485365 79.3846154,103.50664 79.3846154,101.196263 C79.3846154,100.771452 79.440665,100.365273 79.5340811,99.9665465 C79.9451119,98.1666886 81.2379906,96.7059344 82.9381634,96.0500855 C83.5584463,95.811595 84.2273055,95.6662649 84.9297945,95.6662649 C87.1119943,95.6662649 88.8831634,93.8999447 88.8831634,91.7199926 L88.8831634,91.3846154 L152.039914,91.3846154 Z" id="形状结合" fill="#FFFFFF" fill-rule="nonzero"></path>
            </g>
        </g>
    </g>
</svg>