<?xml version="1.0" encoding="UTF-8"?>
<svg width="24px" height="24px" viewBox="0 0 24 24" version="1.1" xmlns="http://www.w3.org/2000/svg" xmlns:xlink="http://www.w3.org/1999/xlink">
    <!-- Generator: Sketch 63.1 (92452) - https://sketch.com -->
    <title>编组 11</title>
    <desc>Created with Sketch.</desc>
    <g id="模版页面" stroke="none" stroke-width="1" fill="none" fill-rule="evenodd">
        <g id="6-客户画像-业务触点-展开" transform="translate(-1368.000000, -248.000000)">
            <g id="编组-11" transform="translate(1368.000000, 248.000000)">
                <rect id="矩形" fill="#FFFFFF" x="0" y="0" width="24" height="24" rx="4"></rect>
                <g id="编组" transform="translate(4.000000, 5.000000)" fill="#16324E" fill-opacity="0.45">
                    <path d="M2.89642037,7.52826236 L1.93128405,7.52826236 L1.93128405,10.3499968 L0.00206387969,10.3499968 L2.41332596,13.1717313 L4.82564054,10.3499968 L2.89642037,10.3499968 L2.89642037,7.52826236 Z M0.00206387969,2.82466993 L1.93128405,2.82466993 L1.93128405,5.6464044 L2.89642037,5.6464044 L2.89642037,2.82466993 L4.82564054,2.82466993 L2.41332596,0.0029354654 L0.00206387969,2.82466993 Z M6.7548607,3.76559891 L15.4379302,3.76559891 L15.4379302,4.70652791 L6.7548607,4.70652791 L6.7548607,3.76559891 Z M6.7548607,0.94386446 L15.4379302,0.94386446 L15.4379302,1.88374095 L6.7548607,1.88374095 L6.7548607,0.94386446 Z M6.7548607,11.2898733 L15.4379302,11.2898733 L15.4379302,12.2318548 L6.7548607,12.2318548 L6.7548607,11.2909258 L6.7548607,11.2898733 Z M6.7548607,8.46919135 L15.4379302,8.46919135 L15.4379302,9.40906784 L6.7548607,9.40906784 L6.7548607,8.46919135 Z" id="形状"></path>
                </g>
            </g>
        </g>
    </g>
</svg>