<?xml version="1.0" encoding="UTF-8"?>
<svg width="14px" height="14px" viewBox="0 0 14 14" version="1.1" xmlns="http://www.w3.org/2000/svg" xmlns:xlink="http://www.w3.org/1999/xlink">
    <!-- Generator: Sketch 63.1 (92452) - https://sketch.com -->
    <title>分组</title>
    <desc>Created with Sketch.</desc>
    <g id="页面-1" stroke="none" stroke-width="1" fill="none" fill-rule="evenodd" fill-opacity="0.45">
        <g id="4-|-创建计划策略配置用户筛选按用户行为筛选" transform="translate(-65.000000, -109.000000)" fill="#16324E" fill-rule="nonzero">
            <g id="编组-3" transform="translate(65.000000, 109.000000)">
                <g id="分组">
                    <path d="M8.70882353,13.8558824 C8.10779207,13.8536143 7.62176471,13.3657416 7.62176471,12.7647059 L7.62176471,8.68 C7.62402246,8.08057167 8.1093952,7.59519893 8.70882353,7.59294118 L12.7976471,7.59294118 C13.3970754,7.59519893 13.8824481,8.08057167 13.8847059,8.68 L13.8847059,12.7647059 C13.8824481,13.3641342 13.3970754,13.8495069 12.7976471,13.8517647 L8.70882353,13.8558824 Z M8.64705882,12.8511765 L12.88,12.8511765 L12.88,8.59764706 L8.64705882,8.59764706 L8.64705882,12.8511765 Z M1.08705882,13.8558824 C0.79803805,13.8558824 0.520914534,13.7407903 0.316932679,13.5360358 C0.112950825,13.3312813 -0.00109477566,13.0537246 -7.80970508e-06,12.7647059 L-7.80970508e-06,8.68 C-7.80970508e-06,8.07963399 0.486692813,7.59294118 1.08705882,7.59294118 L5.17588235,7.59294118 C5.7746397,7.59520921 6.25882353,8.08123836 6.25882353,8.68 L6.25882353,12.7647059 C6.25882353,13.3634675 5.7746397,13.8494967 5.17588235,13.8517647 L1.08705882,13.8558824 Z M1.00470588,12.8511765 L5.25823529,12.8511765 L5.25823529,8.59764706 L1.00470588,8.59764706 L1.00470588,12.8511765 Z M8.70882353,6.26294118 C8.11006189,6.26294118 7.62403274,5.77875734 7.62176471,5.18 L7.62176471,1.08705882 C7.62176471,0.486692813 8.10845752,0 8.70882353,0 L12.7976471,0 C13.3980131,0 13.8847059,0.486692813 13.8847059,1.08705882 L13.8847059,5.17588235 C13.8824378,5.7746397 13.3964087,6.25882782 12.7976471,6.25882353 L8.70882353,6.26294118 Z M8.64705882,5.25823529 L12.88,5.25823529 L12.88,1.00470588 L8.64705882,1.00470588 L8.64705882,5.25823529 Z M1.08705882,6.25882353 C0.488297185,6.25882353 0.00226803649,5.7746397 5.48579194e-16,5.17588235 L5.48579194e-16,1.08705882 C5.48579194e-16,0.486692813 0.486692813,0 1.08705882,0 L5.17588235,0 C5.7746397,0.00226803649 6.25882353,0.488297185 6.25882353,1.08705882 L6.25882353,5.17588235 C6.25882353,5.77397425 5.77397425,6.25882353 5.17588235,6.25882353 L1.08705882,6.25882353 Z M1.00470588,5.25823529 L5.25823529,5.25823529 L5.25823529,1.00470588 L1.00470588,1.00470588 L1.00470588,5.25823529 Z" id="形状"></path>
                </g>
            </g>
        </g>
    </g>
</svg>