<?xml version="1.0" encoding="UTF-8"?>
<svg width="10px" height="10px" viewBox="0 0 10 10" version="1.1" xmlns="http://www.w3.org/2000/svg" xmlns:xlink="http://www.w3.org/1999/xlink">
    <!-- Generator: Sketch 63.1 (92452) - https://sketch.com -->
    <title>清空</title>
    <desc>Created with Sketch.</desc>
    <defs>
        <linearGradient x1="50%" y1="0.368316004%" x2="50%" y2="99.6422026%" id="linearGradient-1">
            <stop stop-color="#918CFF" offset="0.0211148649%"></stop>
            <stop stop-color="#554EFD" offset="100%"></stop>
        </linearGradient>
    </defs>
    <g id="页面-1" stroke="none" stroke-width="1" fill="none" fill-rule="evenodd">
        <g id="9-|-创建计划未来样式备份-2" transform="translate(-143.000000, -63.000000)" fill="url(#linearGradient-1)">
            <g id="保存备份3" transform="translate(129.000000, 48.000000)">
                <g id="1通用-/-2Icon图标-/-Fill-/-开发-/-运行" transform="translate(13.000000, 14.000000)">
                    <path d="M11,4.33333333 L11,3.5 C11,3.04166667 10.625,2.66666667 10.1666667,2.66666667 L8.0625,2.66666667 C7.9375,2.66666667 7.83333333,2.5625 7.83333333,2.4375 L7.83333333,1.91666667 C7.83333333,1.41666667 7.41666667,1 6.91666667,1 L5.04166667,1 C4.54166667,1 4.125,1.41666667 4.125,1.91666667 L4.125,2.4375 C4.125,2.5625 4.02083333,2.66666667 3.89583333,2.66666667 L1.83333333,2.66666667 C1.375,2.66666667 1,3.04166667 1,3.5 L1,4.33333333 L11,4.33333333 Z M1,5.16666667 L1,10.1666667 C1,10.625 1.375,11 1.83333333,11 L3.08333333,11 L3.08333333,8.02083333 L3.5,8.02083333 C3.72916667,8.02083333 3.91666667,8.20833333 3.91666667,8.4375 L3.91666667,11 L5.60416667,11 L5.60416667,8.02083333 L6.02083333,8.02083333 C6.25,8.02083333 6.4375,8.20833333 6.4375,8.4375 L6.4375,11 L8.125,11 L8.125,8.02083333 L8.54166667,8.02083333 C8.77083333,8.02083333 8.95833333,8.20833333 8.95833333,8.4375 L8.95833333,11 L10.1666667,11 C10.625,11 11,10.625 11,10.1666667 L11,5.16666667 L1,5.16666667 Z" id="清空"></path>
                </g>
            </g>
        </g>
    </g>
</svg>