<?xml version="1.0" encoding="UTF-8"?>
<svg width="19px" height="22px" viewBox="0 0 19 22" version="1.1" xmlns="http://www.w3.org/2000/svg" xmlns:xlink="http://www.w3.org/1999/xlink">
    <!-- Generator: Sketch 63.1 (92452) - https://sketch.com -->
    <title>复制多分支</title>
    <desc>Created with Sketch.</desc>
    <defs>
        <linearGradient x1="50%" y1="0%" x2="50%" y2="100%" id="linearGradient-1">
            <stop stop-color="#C4B3FF" offset="0%"></stop>
            <stop stop-color="#6C41FA" offset="100%"></stop>
        </linearGradient>
    </defs>
    <g id="页面-1" stroke="none" stroke-width="1" fill="none" fill-rule="evenodd">
        <g id="2-|-创建计划开始控件定时触发" transform="translate(-111.000000, -569.000000)" fill="url(#linearGradient-1)" fill-rule="nonzero">
            <g id="营销动作备份" transform="translate(64.000000, 408.000000)">
                <g id="编组2备份" transform="translate(16.000000, 143.000000)">
                    <g id="编组" transform="translate(31.000000, 18.000000)">
                        <path d="M4.74509803,1.7254902 C4.74509803,0.754901969 5.5,0 6.36274509,0 L17.6862745,0 C18.3333333,0 18.7647059,0.431372557 18.7647059,1.07843138 L18.7647059,15.6372549 C18.7647059,16.2843137 18.3333333,16.7156863 17.6862745,16.7156863 L15.5294118,16.7156863 L15.5294118,4.3137255 C15.5294118,3.66666668 15.0980392,3.23529412 14.4509804,3.23529412 L4.74509803,3.23529412 L4.74509803,1.7254902 Z M2.69607844,9.8137255 L11.8627451,9.8137255 L11.8627451,8.73529412 L2.69607844,8.73529412 L2.69607844,9.8137255 Z M2.69607844,17.3627451 L11.8627451,17.3627451 L11.8627451,16.2843137 L2.69607844,16.2843137 L2.69607844,17.3627451 Z M2.69607844,13.5882353 L11.8627451,13.5882353 L11.8627451,12.5098039 L2.69607844,12.5098039 L2.69607844,13.5882353 Z M1.07843138,4.20588235 L13.4803921,4.20588235 C14.127451,4.20588235 14.5588235,4.63725491 14.5588235,5.28431373 L14.5588235,20.9215686 C14.5588235,21.5686274 14.127451,22 13.4803921,22 L1.07843138,22 C0.431372557,22 0,21.5686274 0,20.9215686 L0,5.28431373 C0,4.63725491 0.431372557,4.20588235 1.07843138,4.20588235 Z" id="复制多分支"></path>
                    </g>
                </g>
            </g>
        </g>
    </g>
</svg>