<?xml version="1.0" encoding="UTF-8"?>
<svg width="23px" height="20px" viewBox="0 0 23 20" version="1.1" xmlns="http://www.w3.org/2000/svg" xmlns:xlink="http://www.w3.org/1999/xlink">
    <!-- Generator: Sketch 63.1 (92452) - https://sketch.com -->
    <title>事件分支icon</title>
    <desc>Created with Sketch.</desc>
    <defs>
        <linearGradient x1="50%" y1="0%" x2="50%" y2="100%" id="linearGradient-1">
            <stop stop-color="#C4B3FF" offset="0%"></stop>
            <stop stop-color="#6C41FA" offset="100%"></stop>
        </linearGradient>
    </defs>
    <g id="页面-1" stroke="none" stroke-width="1" fill="none" fill-rule="evenodd">
        <g id="9-|-创建计划未来样式备份-2" transform="translate(-651.000000, -258.000000)" fill="url(#linearGradient-1)" fill-rule="nonzero">
            <g id="编组2" transform="translate(622.000000, 239.000000)">
                <g id="编组" transform="translate(29.000000, 19.000000)">
                    <path d="M21.3837732,15.697474 L21.3837732,12.8470671 C21.3837732,10.4235467 19.5307196,8.57049318 17.1071992,8.57049318 L14.2577559,8.57049318 C13.4020557,8.57049318 12.8315889,7.85740963 12.8315889,7.14432611 L12.8315889,5.7200863 L15.683923,5.7200863 C16.5386596,5.7200863 17.1081628,5.15058309 17.1081628,4.29488286 L17.1081628,1.44254871 C17.1081628,0.587812084 16.5386596,0.0173452695 15.6829594,0.0173452695 L7.12884786,0.0173452695 C6.41576432,0.0173452695 5.7026808,0.587812104 5.7026808,1.44351234 L5.7026808,4.29391923 C5.7026808,5.14961947 6.27314763,5.7200863 7.12884786,5.7200863 L9.98021837,5.7200863 L9.98021837,7.14528974 C9.98021837,8.00002636 9.40975153,8.57049318 8.5540513,8.57049318 L5.70364442,8.57049318 C3.28012405,8.57049318 1.42707048,10.4235467 1.42707046,12.8470671 L1.42707046,15.6984376 C0.571370229,15.6984376 0.000903394101,16.2689045 0.000903394101,17.1246047 L0.000903394101,18.5488445 C0.000903394101,19.4045448 0.571370229,19.9750116 1.42707046,19.9750116 L4.27747736,19.9750116 C5.13317759,19.9750116 5.70364442,19.4045448 5.70364442,18.5488445 L5.70364442,17.1236411 C5.70364442,16.2689045 5.13317759,15.697474 4.27747736,15.697474 L4.27747736,12.8470671 C4.27747736,11.9913669 4.84794419,11.4209001 5.70364442,11.4209001 L8.55308767,11.4209001 C9.12355451,11.4209001 9.55140461,11.279247 9.97925474,11.1366303 L9.97925474,15.6984376 C9.2661712,15.6984376 8.55308767,16.4115212 8.55308767,17.1246047 L8.55308767,18.5488445 C8.55308767,19.4045448 9.12355451,19.9750116 9.97925474,19.9750116 L12.8296616,19.9750116 C13.6853618,19.9750116 14.2558287,19.4045448 14.2558287,18.5488445 L14.2558287,17.1236411 C14.2558287,16.2689045 13.6853618,15.697474 12.8296616,15.697474 L12.8296616,11.1366303 C13.2575117,11.279247 13.6853618,11.4218637 14.2558287,11.4218637 L17.1062356,11.4218637 C17.9619358,11.4218637 18.5324026,11.9923305 18.5324026,12.8480307 L18.5324026,15.6984376 C17.8193191,15.6984376 17.1062356,16.4115212 17.1062356,17.1246047 L17.1062356,18.5488445 C17.1062356,19.4045448 17.6767024,19.9750116 18.5324026,19.9750116 L21.3828095,19.9750116 C22.2385098,19.9750116 22.8089766,19.4045448 22.8089766,18.5488445 L22.8089766,17.1236411 C22.8089766,16.2689045 22.2385098,15.697474 21.3828095,15.697474 L21.3837732,15.697474 Z" id="事件分支icon"></path>
                </g>
            </g>
        </g>
    </g>
</svg>