<?xml version="1.0" encoding="UTF-8"?>
<svg width="18px" height="22px" viewBox="0 0 18 22" version="1.1" xmlns="http://www.w3.org/2000/svg" xmlns:xlink="http://www.w3.org/1999/xlink">
    <!-- Generator: Sketch 63.1 (92452) - https://sketch.com -->
    <title>事件多分支</title>
    <desc>Created with Sketch.</desc>
    <defs>
        <linearGradient x1="50%" y1="0%" x2="50%" y2="100%" id="linearGradient-1">
            <stop stop-color="#C4B3FF" offset="0%"></stop>
            <stop stop-color="#6C41FA" offset="100%"></stop>
        </linearGradient>
        <linearGradient x1="50%" y1="0%" x2="50%" y2="100%" id="linearGradient-2">
            <stop stop-color="#C4B3FF" offset="0%"></stop>
            <stop stop-color="#6C41FA" offset="100%"></stop>
        </linearGradient>
        <polygon id="path-3" points="6.6636196e-05 -8.83809524e-05 15.2778052 -8.83809524e-05 15.2778052 19.3333333 6.6636196e-05 19.3333333"></polygon>
        <linearGradient x1="50%" y1="0%" x2="50%" y2="100%" id="linearGradient-5">
            <stop stop-color="#C4B3FF" offset="0%"></stop>
            <stop stop-color="#6C41FA" offset="100%"></stop>
        </linearGradient>
        <linearGradient x1="50%" y1="0%" x2="50%" y2="100%" id="linearGradient-6">
            <stop stop-color="#C4B3FF" offset="0%"></stop>
            <stop stop-color="#6C41FA" offset="100%"></stop>
        </linearGradient>
    </defs>
    <g id="页面-1" stroke="none" stroke-width="1" fill="none" fill-rule="evenodd">
        <g id="2-|-创建计划开始控件定时触发" transform="translate(-113.000000, -473.000000)">
            <g id="营销动作备份" transform="translate(64.000000, 408.000000)">
                <g id="编组2" transform="translate(16.000000, 47.000000)">
                    <g id="编组" transform="translate(33.000000, 18.000000)">
                        <g id="事件多分支">
                            <g id="编组" transform="translate(0.000000, 2.666667)">
                                <mask id="mask-4" fill="white">
                                    <use xlink:href="#path-3"></use>
                                </mask>
                                <g id="Clip-2"></g>
                                <path d="M9.35206667,5.89182781 L9.35206667,1.67230019 L13.5959556,5.89182781 L9.35206667,5.89182781 Z M11.5837333,14.648723 C11.3755111,15.0081021 10.9156222,15.1345973 10.5512889,14.9326469 L10.5406222,14.9266811 L7.63906667,13.2608107 L4.73762222,14.9266811 C4.3744,15.1390164 3.90673333,15.0184869 3.69306667,14.6573402 C3.4794,14.2961935 3.60073333,13.8311992 3.96395556,13.6187535 L3.97462222,13.6127878 L6.87617778,11.9469173 L6.87617778,8.61583924 C6.87617778,8.19691352 7.21773333,7.85730969 7.63906667,7.85730969 C8.05551111,7.85719924 8.39495556,8.18906971 8.40206667,8.603024 L8.40206667,11.9469173 L11.3035111,13.6127878 C11.6686222,13.8219192 11.7941778,14.2856983 11.5837333,14.648723 L11.5837333,14.648723 Z M9.7674,0.193355429 L9.75206667,0.178109714 C9.6154,0.0554811429 9.4524,-8.83809524e-05 9.29262222,-8.83809524e-05 C9.27795556,-8.83809524e-05 9.26328889,0.000464 9.24862222,0.00134780952 L2.7334,0.00134780952 L0.682622222,0.00134780952 C0.303733333,0.00775542857 6.6636196e-05,0.31510019 6.6636196e-05,0.691824 L6.6636196e-05,18.6545897 C0.0064,19.0313135 0.3154,19.3333554 0.6944,19.3333554 L0.694511111,19.3333554 L14.5937333,19.3333554 C14.9726222,19.3269478 15.2765111,19.0197135 15.2764,18.6428792 L15.2764,16.630224 L15.2764,10.4006926 L15.2764,9.65078019 L15.2764,5.99468114 C15.2881778,5.81173257 15.2264,5.62049829 15.0729556,5.46859352 L9.7674,0.193355429 Z" id="Fill-1" fill="url(#linearGradient-5)" fill-rule="nonzero" mask="url(#mask-4)"></path>
                            </g>
                            <g id="编组" transform="translate(2.666667, 0.000000)" fill="url(#linearGradient-6)" fill-rule="nonzero">
                                <path d="M15.0307482,5.49598333 L9.76336211,0.250718182 L9.74813909,0.235559091 C9.59999041,0.102422727 9.42073381,0.0488166667 9.24831655,0.0598015152 L0.743942446,0.0598015152 C0.367779376,0.0661727273 0.0662973319,0.371771212 0.0662973319,0.746354545 L0.0662973319,1.64908939 L6.5076211,1.64908939 C6.53111751,1.64821061 6.55472422,1.64766136 6.57822062,1.64766136 C7.01880576,1.64766136 7.44328537,1.81111591 7.77344844,2.10781667 L7.79440767,2.12660076 L7.8143741,2.14648333 L7.82959712,2.16164242 L13.0952182,7.40515 C13.4509736,7.75787348 13.6415923,8.23988864 13.6220671,8.73365758 L13.6220671,12.3421803 L13.6220671,13.087722 L13.6220671,19.2819682 L14.5550839,19.2819682 C14.931247,19.275597 15.2328393,18.9701083 15.232729,18.5954152 L15.232729,10.4000591 L15.232729,9.65440758 L15.232729,6.01908182 C15.2444221,5.83717273 15.1830887,5.647025 15.0307482,5.49598333" id="Fill-3"></path>
                            </g>
                        </g>
                    </g>
                </g>
            </g>
        </g>
    </g>
</svg>