<?xml version="1.0" encoding="UTF-8"?>
<svg width="14px" height="14px" viewBox="0 0 14 14" version="1.1" xmlns="http://www.w3.org/2000/svg" xmlns:xlink="http://www.w3.org/1999/xlink">
    <!-- Generator: Sketch 63.1 (92452) - https://sketch.com -->
    <title>人群</title>
    <desc>Created with Sketch.</desc>
    <g id="页面-1" stroke="none" stroke-width="1" fill="none" fill-rule="evenodd" fill-opacity="0.45">
        <g id="4-|-创建计划策略配置用户筛选按用户行为筛选" transform="translate(-185.000000, -109.000000)" fill="#16324E" fill-rule="nonzero">
            <g id="编组-3" transform="translate(65.000000, 109.000000)">
                <g id="人群" transform="translate(120.000000, 0.000000)">
                    <path d="M0.481764706,13.7364706 C0.215693406,13.7364706 -1.61814357e-07,13.5207772 -1.61814357e-07,13.2547059 L-1.61814357e-07,12.0770588 C-0.000278544357,10.9061977 0.359060166,9.76350058 1.02941176,8.80352941 C1.68556267,7.86300985 2.60327999,7.13570813 3.66882353,6.71176471 L3.84176471,6.64176471 L3.70588235,6.52647059 C2.86620286,5.88545841 2.37299933,4.88991795 2.37176471,3.83352941 C2.37176471,1.93009627 3.91480215,0.387058824 5.81823529,0.387058824 C7.72166844,0.387058824 9.26470588,1.93009627 9.26470588,3.83352941 C9.26641736,4.88777606 8.77797511,5.88292008 7.94294118,6.52647059 L7.79470588,6.64176471 L7.96764706,6.71176471 C9.03405118,7.13421907 9.95216101,7.86183185 10.6070588,8.80352941 C11.2814478,9.76925595 11.6409816,10.9197643 11.6365125,12.0976471 L11.6365125,13.2752941 C11.6365125,13.4037827 11.5851532,13.5269496 11.4939123,13.6174173 C11.4026713,13.707885 11.2790721,13.758157 11.1505882,13.7570764 L0.481764706,13.7364706 Z M5.83470588,7.25941176 C4.55042899,7.25284262 3.31614496,7.75672817 2.40339073,8.66021585 C1.4906365,9.56370354 0.974182777,10.7927818 0.967647059,12.0770588 L0.967647059,12.7647059 L10.6688235,12.7647059 L10.6688235,12.0647059 C10.6552154,9.39678549 8.48618647,7.24248678 5.81823529,7.24705156 L5.83470588,7.25941176 Z M5.83470588,1.37117647 C4.47023768,1.37117647 3.36411765,2.4772965 3.36411765,3.84176471 C3.36411765,5.20623291 4.47023768,6.31235294 5.83470588,6.31235294 C7.19917409,6.31235294 8.30529412,5.20623291 8.30529412,3.84176471 C8.30529412,3.18366024 8.04275565,2.55274745 7.57586208,2.0889459 C7.10896852,1.62514434 6.47632513,1.36678911 5.81823529,1.37117647 L5.83470588,1.37117647 Z M12.5629412,11.97 C12.5560866,11.6482368 12.524424,11.3274816 12.4682353,11.0105882 L13.0323529,11.0105882 L13.0323529,10.5988235 C13.0331009,8.92779542 11.8922736,7.47243296 10.2694118,7.07411765 L10.1582353,7.04529412 C9.95415736,6.9858933 9.81237488,6.80074206 9.80823529,6.58823529 C9.81515254,6.38695529 9.94654456,6.21121846 10.1376471,6.14764706 L10.1376471,6.14764706 C10.837454,5.83635373 11.2758432,5.12890439 11.2431259,4.36368359 C11.2104086,3.5984628 10.7132352,2.93101376 9.98941176,2.68058824 C9.8660512,2.30864025 9.68243015,1.95948205 9.44588235,1.64705882 L9.41705882,1.59764706 C10.9682329,1.62229382 12.2146467,2.88334974 12.2211765,4.43470588 C12.2221232,5.13823744 11.9574136,5.81618808 11.48,6.33294118 L11.3852941,6.44 L11.5088235,6.50588235 C13.03848,7.28736833 14.0008185,8.86051341 14.0000005,10.5782353 L14.0000005,11.4882353 C14.0000005,11.6160072 13.9492428,11.738546 13.8588944,11.8288944 C13.768546,11.9192428 13.6460072,11.97 13.5182353,11.97 L12.5629412,11.97 Z" id="形状"></path>
                </g>
            </g>
        </g>
    </g>
</svg>