<?xml version="1.0" encoding="UTF-8"?>
<svg width="22px" height="20px" viewBox="0 0 22 20" version="1.1" xmlns="http://www.w3.org/2000/svg" xmlns:xlink="http://www.w3.org/1999/xlink">
    <!-- Generator: Sketch 63.1 (92452) - https://sketch.com -->
    <title>短信</title>
    <desc>Created with Sketch.</desc>
    <defs>
        <linearGradient x1="50%" y1="0%" x2="50%" y2="100%" id="linearGradient-1">
            <stop stop-color="#BFEEA9" offset="0%"></stop>
            <stop stop-color="#61BA46" offset="100%"></stop>
        </linearGradient>
    </defs>
    <g id="页面-1" stroke="none" stroke-width="1" fill="none" fill-rule="evenodd">
        <g id="2-|-创建计划开始控件定时触发" transform="translate(-205.000000, -290.000000)" fill="url(#linearGradient-1)" fill-rule="nonzero">
            <g id="营销动作" transform="translate(64.000000, 128.000000)">
                <g id="编组2备份2" transform="translate(112.000000, 144.000000)">
                    <g id="编组" transform="translate(29.000000, 18.000000)">
                        <path d="M1.12987839,19.8376612 C2.01414553,19.5797472 5.60955228,18.5204653 5.60955228,18.5204653 L0.54036697,19.1806178 C0.54036697,19.1806178 0.24254668,20.0955752 1.12987839,19.8376612 Z M11.0072704,0 C4.93714149,0 0,4.43976762 0,9.90195315 C0,11.7902285 0.589511415,13.6171009 1.70713147,15.2014268 L0.54036697,19.1806178 L5.60955228,18.5204875 C7.28597122,19.3648484 9.13434026,19.8039063 11.0072704,19.8008357 C17.0773993,19.8008357 22.0145408,15.3579873 22.0145408,9.90195315 C22.0145408,4.43976762 17.0773771,0 11.0072704,0 Z M6.21440885,11.3603643 C5.42838622,11.3603643 4.79281714,10.7247953 4.79281714,9.93877261 C4.79281714,9.15274996 5.42838622,8.5171809 6.21440885,8.5171809 C6.99734468,8.5171809 7.63600056,9.15274998 7.63600056,9.93877261 C7.63600056,10.7247952 6.99736688,11.3603643 6.21440885,11.3603643 L6.21440885,11.3603643 Z M11.0072704,11.3603643 C10.2212478,11.3603643 9.58567869,10.7247953 9.58567869,9.93877261 C9.58567869,9.15274996 10.2212478,8.5171809 11.0072704,8.5171809 C11.7902062,8.5171809 12.4288621,9.15274998 12.4288621,9.93877261 C12.4288621,10.7247952 11.7932708,11.3603643 11.0072704,11.3603643 Z M15.8001097,11.3603643 C15.0140871,11.3603643 14.378518,10.7247953 14.378518,9.93877261 C14.378518,9.15274996 15.0140871,8.5171809 15.8001097,8.5171809 C16.5861324,8.5171809 17.2217015,9.15274998 17.2217015,9.93877261 C17.2217015,10.7247952 16.5861324,11.3603643 15.8001097,11.3603643 Z" id="短信"></path>
                    </g>
                </g>
            </g>
        </g>
    </g>
</svg>