<?xml version="1.0" encoding="UTF-8"?>
<svg width="20px" height="20px" viewBox="0 0 20 20" version="1.1" xmlns="http://www.w3.org/2000/svg" xmlns:xlink="http://www.w3.org/1999/xlink">
    <!-- Generator: Sketch 63.1 (92452) - https://sketch.com -->
    <title>开始</title>
    <desc>Created with Sketch.</desc>
    <g id="页面-1" stroke="none" stroke-width="1" fill="none" fill-rule="evenodd">
        <g id="9-|-创建计划未来样式备份-2" transform="translate(-344.000000, -258.000000)" fill="#F98B57" fill-rule="nonzero">
            <g id="编组2备份" transform="translate(314.000000, 240.000000)">
                <g id="编组-4">
                    <g id="编组-3">
                        <g id="编组-2" transform="translate(20.000000, 8.000000)">
                            <g id="编组" transform="translate(10.000000, 10.000000)">
                                <path d="M10,0 C4.42857143,0 0,4.42857143 0,10 C0,15.5714286 4.42857143,20 10,20 C15.5714286,20 20,15.5714286 20,10 C20,4.42857143 15.5714286,0 10,0 Z M14.2857143,10.5714286 L8,14.2857143 C7.57142857,14.5714286 7,14.2857143 7,13.7142857 L7,6.28571429 C7,5.71428571 7.57142857,5.42857143 8,5.71428571 L14.2857143,9.42857143 C14.7142857,9.71428571 14.7142857,10.2857143 14.2857143,10.5714286 Z" id="开始"></path>
                            </g>
                        </g>
                    </g>
                </g>
            </g>
        </g>
    </g>
</svg>