<?xml version="1.0" encoding="UTF-8"?>
<svg width="20px" height="20px" viewBox="0 0 20 20" version="1.1" xmlns="http://www.w3.org/2000/svg" xmlns:xlink="http://www.w3.org/1999/xlink">
    <!-- Generator: Sketch 63.1 (92452) - https://sketch.com -->
    <title>编组2备份</title>
    <desc>Created with Sketch.</desc>
    <defs>
        <linearGradient x1="25.7673072%" y1="0%" x2="79.4450548%" y2="100%" id="linearGradient-1">
            <stop stop-color="#849AFF" offset="0.0211148649%"></stop>
            <stop stop-color="#3F5FF4" offset="100%"></stop>
        </linearGradient>
    </defs>
    <g id="页面-1" stroke="none" stroke-width="1" fill="none" fill-rule="evenodd">
        <g id="5-|-创建计划策略配置触发条件定时触发" transform="translate(-79.000000, -164.000000)">
            <g id="编组2备份" transform="translate(79.000000, 164.000000)">
                <circle id="椭圆形" stroke="#3F5FF4" stroke-width="0.5" fill-opacity="0.15" fill="url(#linearGradient-1)" cx="10" cy="10" r="9.75"></circle>
                <g id="编组" transform="translate(3.750000, 3.750000)">
                    <path d="M6,12 C2.69141358,12 0,9.30858642 0,5.99925009 C0,2.69141358 2.69141358,0 6,0 C9.30858642,0 12,2.69141358 12,5.99925009 C12,9.30858642 9.30858642,12 6,12 Z" id="形状" fill="url(#linearGradient-1)"></path>
                    <path d="M3.67410914,8.8408134 L7.37915396,6.73998205 C7.40159819,6.72725574 7.41825494,6.70634693 7.4256426,6.681626 L8.61129098,2.71415455 C8.64291813,2.60832232 8.58276302,2.49688948 8.47693079,2.46526233 C8.4259537,2.45002822 8.37100757,2.45573382 8.32424816,2.48111689 L4.57646474,4.51557914 C4.55280078,4.52842499 4.53531702,4.55027094 4.52796889,4.57617468 L3.38305189,8.6122547 C3.35290788,8.71851888 3.41461546,8.82909957 3.52087964,8.85924359 C3.57236482,8.87384842 3.62755557,8.86721016 3.67410914,8.8408134 Z M5.89801325,6.2529838 C5.64780445,6.25197528 5.44569001,6.04850399 5.44635759,5.79829408 C5.44702848,5.54808416 5.65022847,5.34569697 5.90043906,5.34603016 C6.15064964,5.34636418 6.35331125,5.5492925 6.35331125,5.79950331 C6.35331125,5.92008905 6.30528543,6.03570951 6.21984773,6.12080546 C6.13441004,6.20590141 6.01859801,6.25346442 5.89801325,6.2529838 L5.89801325,6.2529838 Z" id="形状" fill="#FFFFFF" transform="translate(5.993188, 5.666737) rotate(-4.000000) translate(-5.993188, -5.666737) "></path>
                </g>
            </g>
        </g>
    </g>
</svg>