<?xml version="1.0" encoding="UTF-8"?>
<svg width="24px" height="20px" viewBox="0 0 24 20" version="1.1" xmlns="http://www.w3.org/2000/svg" xmlns:xlink="http://www.w3.org/1999/xlink">
    <!-- Generator: Sketch 63.1 (92452) - https://sketch.com -->
    <title>标签多分支</title>
    <desc>Created with Sketch.</desc>
    <defs>
        <linearGradient x1="50%" y1="0%" x2="50%" y2="100%" id="linearGradient-1">
            <stop stop-color="#C4B3FF" offset="0%"></stop>
            <stop stop-color="#6C41FA" offset="100%"></stop>
        </linearGradient>
    </defs>
    <g id="页面-1" stroke="none" stroke-width="1" fill="none" fill-rule="evenodd">
        <g id="2-|-创建计划开始控件定时触发" transform="translate(-204.000000, -474.000000)" fill="url(#linearGradient-1)" fill-rule="nonzero">
            <g id="营销动作备份" transform="translate(64.000000, 408.000000)">
                <g id="编组2" transform="translate(112.000000, 47.000000)">
                    <g id="编组" transform="translate(28.000000, 19.000000)">
                        <path d="M19.1515152,11.3454545 C19.1515152,10.9090909 19.0060606,10.5212121 18.6909091,10.1939394 L9.64848485,1.16363636 C9.33333333,0.848484848 8.88484848,0.56969697 8.36363636,0.339393939 C7.81818182,0.109090909 7.33333333,1.77635684e-15 6.88484848,1.77635684e-15 L1.62424242,1.77635684e-15 C1.18787879,1.77635684e-15 0.8,0.16969697 0.484848485,0.484848485 C0.16969697,0.8 0,1.18787879 0,1.62424242 L0,6.87272727 C0,7.30909091 0.109090909,7.81818182 0.339393939,8.35151515 C0.56969697,8.8969697 0.824242424,9.32121212 1.16363636,9.63636364 L10.2060606,18.6787879 C10.5212121,18.9939394 10.9090909,19.1393939 11.3454545,19.1393939 C11.7818182,19.1393939 12.169697,18.9939394 12.4969697,18.6787879 L18.6909091,12.4848485 C18.9818182,12.1575758 19.1515152,11.7818182 19.1515152,11.3454545 Z M5.18787879,5.2 C4.87272727,5.51515152 4.48484848,5.67272727 4.04848485,5.67272727 C3.61212121,5.67272727 3.22424242,5.52727273 2.90909091,5.2 C2.59393939,4.88484848 2.43636364,4.4969697 2.43636364,4.06060606 C2.43636364,3.62424242 2.58181818,3.23636364 2.90909091,2.92121212 C3.22424242,2.60606061 3.61212121,2.44848485 4.04848485,2.44848485 C4.48484848,2.44848485 4.87272727,2.59393939 5.18787879,2.92121212 C5.5030303,3.23636364 5.64848485,3.62424242 5.64848485,4.06060606 C5.67272727,4.52121212 5.5030303,4.88484848 5.18787879,5.2 Z M23.5393939,10.1818182 L14.4969697,1.16363636 C14.1818182,0.848484848 13.7333333,0.56969697 13.2121212,0.339393939 C12.6666667,0.109090909 12.1818182,0 11.7333333,0 L8.88484848,0 C9.32121212,0 9.83030303,0.109090909 10.3636364,0.339393939 C10.9090909,0.56969697 11.3333333,0.824242424 11.6484848,1.16363636 L20.6909091,10.1818182 C21.0060606,10.5212121 21.1636364,10.8969697 21.1636364,11.3333333 C21.1636364,11.769697 21.0181818,12.1575758 20.6909091,12.4727273 L14.7636364,18.4121212 C15.0181818,18.6666667 15.2484848,18.8484848 15.430303,18.9818182 C15.6121212,19.1151515 15.8666667,19.1515152 16.169697,19.1515152 C16.6060606,19.1515152 16.9939394,19.0060606 17.3212121,18.6787879 L23.5151515,12.4606061 C23.830303,12.1454545 23.9757576,11.7575758 23.9757576,11.3212121 C24,10.8848485 23.8545455,10.5212121 23.5393939,10.1818182 Z" id="标签多分支"></path>
                    </g>
                </g>
            </g>
        </g>
    </g>
</svg>