<?xml version="1.0" encoding="UTF-8"?>
<svg width="12px" height="12px" viewBox="0 0 12 12" version="1.1" xmlns="http://www.w3.org/2000/svg" xmlns:xlink="http://www.w3.org/1999/xlink">
    <!-- Generator: Sketch 63.1 (92452) - https://sketch.com -->
    <title>触发设置</title>
    <desc>Created with Sketch.</desc>
    <g id="页面-1" stroke="none" stroke-width="1" fill="none" fill-rule="evenodd" fill-opacity="0.45396498">
        <g id="9-|-创建计划完成策略配置" transform="translate(-119.000000, -426.000000)" fill="#16324E" fill-rule="nonzero">
            <g id="触发设置" transform="translate(119.000000, 426.000000)">
                <path d="M7.09340523,0.000818566549 C7.18577916,-0.00566378903 7.27668667,0.0265720367 7.34434112,0.0898004985 C7.41199557,0.15302896 7.45029907,0.24155108 7.4500719,0.3341519 L7.4500719,1.7041519 C7.71701358,1.8320796 7.97734329,1.97336966 8.2300719,2.12748523 L9.36340523,1.42081857 C9.53994864,1.32894608 9.75749975,1.39026921 9.8600719,1.56081857 L11.2767386,4.0441519 C11.3461063,4.12210146 11.3705396,4.23023309 11.3414268,4.3304352 C11.312314,4.43063731 11.2337425,4.50884186 11.1334052,4.53748523 L10.0034052,5.24748523 L10.0034052,6.10081857 L11.1367386,6.80748523 C11.2960121,6.91827415 11.355826,7.12553623 11.2800719,7.3041519 L9.86340523,9.7841519 C9.75261632,9.94342543 9.54535424,10.0032393 9.36673856,9.92748523 L8.23340523,9.21748523 C7.99788278,9.40048566 7.73453997,9.54453643 7.45340523,9.6441519 L7.45340523,10.9774852 C7.45979069,11.0670331 7.42978552,11.1553709 7.37018107,11.2225043 C7.31057663,11.2896377 7.22641257,11.3298905 7.13673856,11.3341519 L4.2600719,11.3341519 C4.17162724,11.3396184 4.08464599,11.3096432 4.01834652,11.2508493 C3.95204705,11.1920554 3.9118866,11.1092823 3.90673856,11.0208186 C3.90333895,11.0065742 3.90333895,10.9917296 3.90673856,10.9774852 L3.90673856,9.6441519 C3.63843058,9.51891712 3.37795372,9.37754721 3.12673856,9.22081857 L2.00340523,9.9241519 C1.82705077,10.0178233 1.6082101,9.95613664 1.50673856,9.7841519 L0.0767385646,7.3041519 C0.00759075132,7.22556019 -0.0166917245,7.11712595 0.0123336672,7.01654959 C0.041359059,6.91597323 0.119682273,6.83715003 0.220071898,6.80748523 L1.35340523,6.10081857 L1.35340523,5.24748523 L0.220071898,4.53748523 C0.119734601,4.50884186 0.0411630851,4.43063731 0.0120503106,4.3304352 C-0.0170624638,4.23023309 0.00737083786,4.12210146 0.0767385646,4.0441519 L1.49673856,1.56081857 C1.54910759,1.47710532 1.63589703,1.42091901 1.73371214,1.40740508 C1.83152725,1.39389115 1.93029992,1.42444059 2.00340523,1.49081857 L3.12673856,2.20081857 C3.36026065,2.01663915 3.6227098,1.87246108 3.90340523,1.7741519 L3.90340523,0.357485233 C3.89701195,0.268485762 3.92656784,0.180638527 3.98545837,0.113603566 C4.0443489,0.0465686059 4.12765703,0.00594295938 4.21673856,0.000818566549 L7.09340523,0.000818566549 Z M5.6700719,3.54748523 C5.10534916,3.53931928 4.56136128,3.76005257 4.16200026,4.15941359 C3.76263923,4.55877461 3.54190595,5.1027625 3.5500719,5.66748523 C3.53825286,6.23449954 3.7573717,6.7819717 4.15713935,7.18425362 C4.556907,7.58653554 5.10299463,7.80908246 5.6700719,7.80081857 C6.23944137,7.8127513 6.78902383,7.591824 7.19171725,7.18913058 C7.59441067,6.78643716 7.81533796,6.2368547 7.80340523,5.66748523 C7.81261325,5.10012701 7.59036836,4.5534855 7.18787687,4.15350958 C6.78538538,3.75353366 6.23736124,3.53472032 5.6700719,3.54748523 Z" id="形状"></path>
            </g>
        </g>
    </g>
</svg>