<?xml version="1.0" encoding="UTF-8"?>
<svg width="12px" height="12px" viewBox="0 0 12 12" version="1.1" xmlns="http://www.w3.org/2000/svg" xmlns:xlink="http://www.w3.org/1999/xlink">
    <!-- Generator: Sketch 63.1 (92452) - https://sketch.com -->
    <title>触发条件</title>
    <desc>Created with Sketch.</desc>
    <g id="页面-1" stroke="none" stroke-width="1" fill="none" fill-rule="evenodd" fill-opacity="0.45396498">
        <g id="9-|-创建计划完成策略配置" transform="translate(-119.000000, -305.000000)" fill="#16324E" fill-rule="nonzero">
            <g id="触发条件" transform="translate(119.000000, 305.000000)">
                <path d="M11.2376471,7.41176471 L10.1364706,7.41176471 L10.1364706,6.41647059 C10.1364747,5.95977391 9.76728078,5.58900221 9.31058824,5.58705882 L6.38117647,5.58705882 L6.38117647,3.98470588 L7.48235294,3.98470588 C7.89559188,3.98470588 8.23058824,3.64970953 8.23058824,3.23647059 L8.23058824,0.765882353 C8.23534155,0.564398332 8.15861327,0.369516514 8.01777343,0.225354987 C7.8769336,0.08119346 7.68389301,-2.89918075e-08 7.48235294,-2.89918075e-08 L4.50352941,-2.89918075e-08 C4.09029047,-2.89918075e-08 3.75529412,0.334996352 3.75529412,0.748235294 L3.75529412,3.21882353 C3.75529412,3.63206247 4.09029047,3.96705882 4.50352941,3.96705882 L5.60470588,3.96705882 L5.60470588,5.56941176 L2.67882353,5.56941176 C2.22213098,5.57135515 1.85293704,5.94212685 1.85294118,6.39882353 L1.85294118,6.39882353 L1.85294118,7.51764706 L0.748235294,7.51764706 C0.547320521,7.51761129 0.354832787,7.59837799 0.214098473,7.74176767 C0.0733641585,7.88515735 -0.00379084801,8.07912099 -1.06143393e-16,8.28 L-1.06143393e-16,10.7682353 C-5.55111512e-17,11.1814742 0.334996352,11.5164706 0.748235294,11.5164706 L3.72705882,11.5164706 C4.14029777,11.5164706 4.47529412,11.1814742 4.47529412,10.7682353 L4.47529412,8.29764706 C4.47529412,8.09920272 4.39646241,7.90888615 4.25614107,7.76856481 C4.11581974,7.62824347 3.92550316,7.54941176 3.72705882,7.54941176 L2.62588235,7.54941176 L2.62588235,6.41294118 C2.6238904,6.39831981 2.6280913,6.38353056 2.63747207,6.37213963 C2.64685284,6.3607487 2.66056211,6.35378988 2.67529412,6.35294118 L9.30705882,6.35294118 C9.33491076,6.35480204 9.35653268,6.37796839 9.35647059,6.40588235 L9.35647059,7.41176471 L8.25882353,7.41176471 C7.84558459,7.41176471 7.51058824,7.74676106 7.51058824,8.16 L7.51058824,10.6482353 C7.51252005,11.0606714 7.84638742,11.3945388 8.25882353,11.3964706 L11.2376471,11.3964706 C11.652076,11.400416 11.9922721,11.0696698 12,10.6552941 L12,8.18470588 C12.0047908,7.98011915 11.9263599,7.78234498 11.782657,7.63664616 C11.638954,7.49094734 11.4422804,7.40979607 11.2376471,7.41176471 Z" id="形状"></path>
            </g>
        </g>
    </g>
</svg>