<?xml version="1.0" encoding="UTF-8"?>
<svg width="12px" height="12px" viewBox="0 0 12 12" version="1.1" xmlns="http://www.w3.org/2000/svg" xmlns:xlink="http://www.w3.org/1999/xlink">
    <!-- Generator: Sketch 63.1 (92452) - https://sketch.com -->
    <title>用户筛选</title>
    <desc>Created with Sketch.</desc>
    <g id="页面-1" stroke="none" stroke-width="1" fill="none" fill-rule="evenodd" fill-opacity="0.45396498">
        <g id="9-|-创建计划完成策略配置" transform="translate(-119.000000, -240.000000)" fill="#16324E" fill-rule="nonzero">
            <g id="用户筛选" transform="translate(119.000000, 240.000000)">
                <path d="M6.60352941,11.7317647 C6.41416064,11.7317721 6.22762855,11.6857447 6.06,11.5976471 L4.54235294,10.7505882 C4.17958516,10.5568522 3.95500717,10.1771112 3.96,9.76588235 L3.96,4.94117647 C3.9565142,4.85872012 3.91799125,4.78167421 3.85411765,4.72941176 L0.352941176,1.91647059 L0.317647059,1.87411765 C0.00355721986,1.55387207 -0.0857028019,1.07549414 0.0917647059,0.663529412 C0.263333002,0.260378215 0.659508212,-0.000958415088 1.09764706,-2.62724156e-06 L10.5882353,-2.62724156e-06 C11.0318899,0.00132796372 11.4336742,0.262280666 11.6152941,0.667058824 C11.7988679,1.07128939 11.7208605,1.54629927 11.4176471,1.87058824 L11.3717647,1.91647059 L7.81764706,4.76117647 C7.75698177,4.81483119 7.722277,4.89195291 7.72235294,4.97294118 L7.72235294,10.62 C7.7282517,11.2313017 7.23948886,11.7326777 6.62823529,11.7423529 L6.60352941,11.7317647 Z M8.67882353,9.45529412 C8.4449147,9.45529412 8.25529414,9.26567353 8.25529414,9.03176471 C8.25529414,8.79785588 8.4449147,8.60823529 8.67882353,8.60823529 L11.2941176,8.60823529 C11.4064446,8.60823529 11.514171,8.65285701 11.5935982,8.73228419 C11.6730253,8.81171136 11.7176659,8.91943772 11.7176659,9.03176471 C11.7187004,9.14262088 11.6755118,9.24932217 11.5976471,9.32823529 C11.5200115,9.40842317 11.412781,9.45310255 11.3011765,9.45176471 L8.67882353,9.45176471 L8.67882353,9.45529412 Z M8.67882353,7.73647059 C8.46079204,7.71650468 8.29391659,7.53364964 8.29391659,7.31470588 C8.29391659,7.09576213 8.46079204,6.91290708 8.67882353,6.89294118 L11.2941176,6.89294118 C11.4061188,6.89199996 11.5138564,6.93583397 11.5933867,7.01470149 C11.672917,7.09356902 11.717651,7.20093604 11.7176471,7.31294118 C11.7216333,7.4264433 11.678293,7.53650132 11.5979854,7.61680892 C11.5176778,7.69711652 11.4076198,7.74045685 11.2941176,7.73647059 L8.67882353,7.73647059 L8.67882353,7.73647059 Z M8.67882353,6.01058824 C8.51892983,6.02523026 8.36450496,5.94819688 8.28002878,5.81165327 C8.1955526,5.67510966 8.1955526,5.5025374 8.28002878,5.36599379 C8.36450496,5.22945018 8.51892983,5.1524168 8.67882353,5.16705882 L11.2941176,5.16705882 C11.4061188,5.1661176 11.5138564,5.20995162 11.5933867,5.28881914 C11.672917,5.36768667 11.717651,5.47505368 11.7176471,5.58705882 C11.7213756,5.69704518 11.6806684,5.80390155 11.6047059,5.88352941 C11.5229981,5.96560718 11.4096472,6.00811378 11.2941176,6 L8.67882353,6.01058824 Z" id="形状"></path>
            </g>
        </g>
    </g>
</svg>