<?xml version="1.0" encoding="UTF-8"?>
<svg width="16px" height="16px" viewBox="0 0 16 16" version="1.1" xmlns="http://www.w3.org/2000/svg" xmlns:xlink="http://www.w3.org/1999/xlink">
    <!-- Generator: Sketch 63.1 (92452) - https://sketch.com -->
    <title>编组13</title>
    <desc>Created with Sketch.</desc>
    <defs>
        <linearGradient x1="50%" y1="0%" x2="50%" y2="100%" id="linearGradient-1">
            <stop stop-color="#709CFF" offset="0%"></stop>
            <stop stop-color="#6F5DFE" offset="100%"></stop>
        </linearGradient>
    </defs>
    <g id="页面-1" stroke="none" stroke-width="1" fill="none" fill-rule="evenodd">
        <g id="12-|-微信服务号控件触达内容打开方式微信小程序" transform="translate(-975.000000, -416.000000)">
            <g id="编组12" transform="translate(25.000000, 88.000000)">
                <g id="编组17" transform="translate(768.000000, 320.000000)">
                    <g id="编组11" transform="translate(62.000000, 0.000000)">
                        <g id="保存备份4" transform="translate(104.000000, 0.000000)">
                            <g id="编组13" transform="translate(16.000000, 8.000000)">
                                <circle id="椭圆形" fill="url(#linearGradient-1)" opacity="0.25" cx="8" cy="8" r="8"></circle>
                                <circle id="椭圆形" fill="url(#linearGradient-1)" cx="8" cy="8" r="6"></circle>
                                <g id="编组" transform="translate(4.000000, 4.000000)" fill="#FFFFFF" fill-rule="nonzero">
                                    <path d="M4.3543719,5.48344503 C3.86549595,5.48828939 3.39502,5.29725418 3.04791034,4.95296064 C2.85556346,4.75462538 2.85787443,4.43866575 3.05310187,4.24316526 C3.24832931,4.04766477 3.56428541,4.04491221 3.7628893,4.2369817 C4.10837914,4.58197155 4.7078615,4.54447265 5.09934998,4.15248419 L6.66030406,2.59153011 C6.86929791,2.38403621 6.98829441,2.11154423 6.98829441,1.84655203 C6.99067546,1.62487727 6.90319774,1.41168413 6.74580155,1.25556941 C6.5794321,1.08635917 6.34760832,0.998010584 6.11082023,1.01357653 C5.8568277,1.02507619 5.60733504,1.14107278 5.40884088,1.33956694 L4.5138672,2.23454061 C4.30437337,2.02504678 3.44489866,1.87155129 3.21190551,2.10454443 L4.69286194,0.624587968 C5.06935086,0.247599059 5.55483658,0.0271055499 6.06282164,0.00260627107 C6.58374344,-0.0251848746 7.09182855,0.170302415 7.45978054,0.540090456 C7.80727184,0.88582476 8.00175666,1.35636998 7.99977981,1.84655203 C7.99977981,2.37903636 7.77177136,2.9115207 7.37478305,3.30750904 L5.81432895,4.86796313 C5.42884349,5.25904251 4.90349261,5.48051749 4.3543719,5.48344503 Z M2.18493572,3.13151422 L0.62498161,4.69146833 C0.227993293,5.08845665 0,5.62094099 0,6.15342532 C0,6.64791078 0.191494368,7.11189713 0.539984113,7.4593869 C0.907896514,7.82960069 1.41625447,8.02530487 1.93744301,7.99737108 C2.44442809,7.9728718 2.93091378,7.75237828 3.3074027,7.37538937 L4.78785915,5.89543291 C4.554866,6.12842606 3.69489131,5.97493057 3.48589745,5.76543673 L2.59092378,6.6604104 C2.39292961,6.85840458 2.14343694,6.97440116 1.88944441,6.98640082 C1.65271132,7.00096733 1.42122496,6.91256506 1.2544631,6.74390795 C1.09703677,6.58818413 1.00937767,6.37534929 1.01147024,6.15392531 C1.01147024,5.88743315 1.13146671,5.61594114 1.33996058,5.40794725 L2.89991469,3.84649319 C3.29190316,3.4550047 3.89138552,3.41700582 4.23687535,3.76199567 C4.36459404,3.88971437 4.55074809,3.93959419 4.72521507,3.89284591 C4.89968205,3.84609762 5.03595627,3.7098234 5.08270456,3.53535643 C5.12945284,3.36088945 5.07957302,3.1747354 4.95185433,3.04701671 C4.60473006,2.70299542 4.13459344,2.51184493 3.64589274,2.51603233 C3.12590804,2.51603233 2.5934237,2.72252626 2.18493572,3.13101424 L2.18493572,3.13151422 Z" id="形状"></path>
                                </g>
                            </g>
                        </g>
                    </g>
                </g>
            </g>
        </g>
    </g>
</svg>